<?xml version="1.0" encoding="utf-8" standalone="no"?>
<!DOCTYPE svg PUBLIC "-//W3C//DTD SVG 1.1//EN"
  "http://www.w3.org/Graphics/SVG/1.1/DTD/svg11.dtd">
<!-- Created with matplotlib (http://matplotlib.org/) -->
<svg height="345.6pt" version="1.1" viewBox="0 0 460.8 345.6" width="460.8pt" xmlns="http://www.w3.org/2000/svg" xmlns:xlink="http://www.w3.org/1999/xlink">
 <defs>
  <style type="text/css">
*{stroke-linecap:butt;stroke-linejoin:round;}
  </style>
 </defs>
 <g id="figure_1">
  <g id="patch_1">
   <path d="M 0 345.6 
L 460.8 345.6 
L 460.8 0 
L 0 0 
z
" style="fill:#ffffff;"/>
  </g>
  <g id="axes_1">
   <g id="patch_2">
    <path d="M 57.6 307.584 
L 414.72 307.584 
L 414.72 41.472 
L 57.6 41.472 
z
" style="fill:#ffffff;"/>
   </g>
   <g id="matplotlib.axis_1">
    <g id="xtick_1">
     <g id="line2d_1">
      <path clip-path="url(#pf61961184f)" d="M 106.461325 307.584 
L 106.461325 41.472 
" style="fill:none;stroke:#b0b0b0;stroke-linecap:square;stroke-width:0.8;"/>
     </g>
     <g id="line2d_2">
      <defs>
       <path d="M 0 0 
L 0 3.5 
" id="m587c201917" style="stroke:#000000;stroke-width:0.8;"/>
      </defs>
      <g>
       <use style="stroke:#000000;stroke-width:0.8;" x="106.461325" xlink:href="#m587c201917" y="307.584"/>
      </g>
     </g>
     <g id="text_1">
      <!-- 0 -->
      <defs>
       <path d="M 4.4375 36.328125 
Q 4.4375 56.34375 11.078125 66.625 
Q 17.71875 76.90625 30.328125 76.90625 
Q 54.34375 76.90625 54.34375 38.140625 
Q 54.34375 19 47.578125 8.859375 
Q 40.828125 -1.265625 28.609375 -1.265625 
Q 17.09375 -1.265625 10.765625 8.34375 
Q 4.4375 17.96875 4.4375 36.328125 
z
M 14.203125 36.765625 
Q 14.203125 6.640625 29.5 6.640625 
Q 44.53125 6.640625 44.53125 37.25 
Q 44.53125 68.953125 29.78125 68.953125 
Q 14.203125 68.953125 14.203125 36.765625 
z
" id="MicrosoftYaHei-30"/>
      </defs>
      <g transform="translate(103.529294 322.57775)scale(0.1 -0.1)">
       <use xlink:href="#MicrosoftYaHei-30"/>
      </g>
     </g>
    </g>
    <g id="xtick_2">
     <g id="line2d_3">
      <path clip-path="url(#pf61961184f)" d="M 171.71852 307.584 
L 171.71852 41.472 
" style="fill:none;stroke:#b0b0b0;stroke-linecap:square;stroke-width:0.8;"/>
     </g>
     <g id="line2d_4">
      <g>
       <use style="stroke:#000000;stroke-width:0.8;" x="171.71852" xlink:href="#m587c201917" y="307.584"/>
      </g>
     </g>
     <g id="text_2">
      <!-- 2 -->
      <defs>
       <path d="M 51.171875 0 
L 5.171875 0 
L 5.171875 8.296875 
L 27.15625 30.21875 
Q 36.234375 39.3125 39.3125 44.609375 
Q 42.390625 49.90625 42.390625 55.5625 
Q 42.390625 62.015625 38.765625 65.453125 
Q 35.15625 68.890625 28.328125 68.890625 
Q 18.21875 68.890625 9.03125 60.296875 
L 9.03125 70.015625 
Q 17.96875 76.90625 29.828125 76.90625 
Q 40.046875 76.90625 45.953125 71.390625 
Q 51.859375 65.875 51.859375 56.546875 
Q 51.859375 49.515625 48.0625 42.75 
Q 44.28125 35.984375 33.734375 25.53125 
L 16.5 8.6875 
L 16.5 8.5 
L 51.171875 8.5 
z
" id="MicrosoftYaHei-32"/>
      </defs>
      <g transform="translate(168.786489 322.57775)scale(0.1 -0.1)">
       <use xlink:href="#MicrosoftYaHei-32"/>
      </g>
     </g>
    </g>
    <g id="xtick_3">
     <g id="line2d_5">
      <path clip-path="url(#pf61961184f)" d="M 236.975715 307.584 
L 236.975715 41.472 
" style="fill:none;stroke:#b0b0b0;stroke-linecap:square;stroke-width:0.8;"/>
     </g>
     <g id="line2d_6">
      <g>
       <use style="stroke:#000000;stroke-width:0.8;" x="236.975715" xlink:href="#m587c201917" y="307.584"/>
      </g>
     </g>
     <g id="text_3">
      <!-- 4 -->
      <defs>
       <path d="M 55.078125 19.625 
L 45.40625 19.625 
L 45.40625 0 
L 36.140625 0 
L 36.140625 19.625 
L 0.875 19.625 
L 0.875 25.828125 
L 34.328125 75.640625 
L 45.40625 75.640625 
L 45.40625 27.203125 
L 55.078125 27.203125 
z
M 36.140625 27.203125 
L 36.140625 58.890625 
Q 36.140625 62.25 36.328125 66.65625 
L 36.140625 66.65625 
Q 35.453125 64.796875 33.25 60.84375 
L 10.75 27.203125 
z
" id="MicrosoftYaHei-34"/>
      </defs>
      <g transform="translate(234.043684 322.57775)scale(0.1 -0.1)">
       <use xlink:href="#MicrosoftYaHei-34"/>
      </g>
     </g>
    </g>
    <g id="xtick_4">
     <g id="line2d_7">
      <path clip-path="url(#pf61961184f)" d="M 302.23291 307.584 
L 302.23291 41.472 
" style="fill:none;stroke:#b0b0b0;stroke-linecap:square;stroke-width:0.8;"/>
     </g>
     <g id="line2d_8">
      <g>
       <use style="stroke:#000000;stroke-width:0.8;" x="302.23291" xlink:href="#m587c201917" y="307.584"/>
      </g>
     </g>
     <g id="text_4">
      <!-- 6 -->
      <defs>
       <path d="M 49.703125 65.921875 
Q 43.796875 68.953125 37.359375 68.953125 
Q 27.546875 68.953125 21.578125 60.40625 
Q 15.625 51.859375 15.53125 37.0625 
L 15.765625 37.0625 
Q 21.140625 47.46875 32.90625 47.46875 
Q 42.71875 47.46875 48.578125 41.0625 
Q 54.4375 34.671875 54.4375 24.078125 
Q 54.4375 12.984375 47.671875 5.859375 
Q 40.921875 -1.265625 30.421875 -1.265625 
Q 18.890625 -1.265625 12.328125 7.734375 
Q 5.765625 16.75 5.765625 33.296875 
Q 5.765625 53.328125 14.375 65.109375 
Q 23 76.90625 37.0625 76.90625 
Q 45.125 76.90625 49.703125 74.703125 
z
M 16.109375 24.75 
Q 16.109375 17.28125 20.09375 11.953125 
Q 24.078125 6.640625 30.671875 6.640625 
Q 36.921875 6.640625 40.828125 11.234375 
Q 44.734375 15.828125 44.734375 23.046875 
Q 44.734375 30.859375 41.046875 35.203125 
Q 37.359375 39.546875 30.5625 39.546875 
Q 24.125 39.546875 20.109375 35.15625 
Q 16.109375 30.765625 16.109375 24.75 
z
" id="MicrosoftYaHei-36"/>
      </defs>
      <g transform="translate(299.300879 322.57775)scale(0.1 -0.1)">
       <use xlink:href="#MicrosoftYaHei-36"/>
      </g>
     </g>
    </g>
    <g id="xtick_5">
     <g id="line2d_9">
      <path clip-path="url(#pf61961184f)" d="M 367.490105 307.584 
L 367.490105 41.472 
" style="fill:none;stroke:#b0b0b0;stroke-linecap:square;stroke-width:0.8;"/>
     </g>
     <g id="line2d_10">
      <g>
       <use style="stroke:#000000;stroke-width:0.8;" x="367.490105" xlink:href="#m587c201917" y="307.584"/>
      </g>
     </g>
     <g id="text_5">
      <!-- 8 -->
      <defs>
       <path d="M 21.390625 39.796875 
Q 7.859375 46.09375 7.859375 58.0625 
Q 7.859375 66.40625 14.203125 71.65625 
Q 20.5625 76.90625 30.421875 76.90625 
Q 39.453125 76.90625 45.3125 71.96875 
Q 51.171875 67.046875 51.171875 59.234375 
Q 51.171875 46.625 37.0625 39.84375 
L 37.0625 39.65625 
Q 53.609375 33.6875 53.609375 19.34375 
Q 53.609375 9.90625 46.796875 4.3125 
Q 39.984375 -1.265625 27.78125 -1.265625 
Q 17.78125 -1.265625 11.46875 4.25 
Q 5.171875 9.765625 5.171875 18.5625 
Q 5.171875 33.015625 21.390625 39.59375 
z
M 41.5 58.109375 
Q 41.5 63.1875 38.328125 66.109375 
Q 35.15625 69.046875 29.734375 69.046875 
Q 24.65625 69.046875 21.09375 65.984375 
Q 17.53125 62.9375 17.53125 58.203125 
Q 17.53125 48.734375 29.390625 43.796875 
Q 41.5 48.828125 41.5 58.109375 
z
M 28.8125 35.25 
Q 14.796875 29.59375 14.796875 19.046875 
Q 14.796875 13.578125 18.890625 10.0625 
Q 23 6.546875 29.59375 6.546875 
Q 35.984375 6.546875 39.984375 10.03125 
Q 44 13.53125 44 18.75 
Q 44 29.734375 28.8125 35.25 
z
" id="MicrosoftYaHei-38"/>
      </defs>
      <g transform="translate(364.558074 322.57775)scale(0.1 -0.1)">
       <use xlink:href="#MicrosoftYaHei-38"/>
      </g>
     </g>
    </g>
    <g id="text_6">
     <!-- t -->
     <defs>
      <path d="M 34.46875 0.53125 
Q 31.34375 -1.171875 26.03125 -1.171875 
Q 11.53125 -1.171875 11.53125 14.890625 
L 11.53125 46.09375 
L 2.25 46.09375 
L 2.25 54 
L 11.53125 54 
L 11.53125 67 
L 21.046875 70.015625 
L 21.046875 54 
L 34.46875 54 
L 34.46875 46.09375 
L 21.046875 46.09375 
L 21.046875 16.609375 
Q 21.046875 11.28125 22.84375 8.984375 
Q 24.65625 6.6875 28.859375 6.6875 
Q 32.078125 6.6875 34.46875 8.5 
z
" id="MicrosoftYaHei-74"/>
     </defs>
     <g transform="translate(234.2975 337.057437)scale(0.1 -0.1)">
      <use xlink:href="#MicrosoftYaHei-74"/>
     </g>
    </g>
   </g>
   <g id="matplotlib.axis_2">
    <g id="ytick_1">
     <g id="line2d_11">
      <path clip-path="url(#pf61961184f)" d="M 57.6 276.513882 
L 414.72 276.513882 
" style="fill:none;stroke:#b0b0b0;stroke-linecap:square;stroke-width:0.8;"/>
     </g>
     <g id="line2d_12">
      <defs>
       <path d="M 0 0 
L -3.5 0 
" id="m5047933f1c" style="stroke:#000000;stroke-width:0.8;"/>
      </defs>
      <g>
       <use style="stroke:#000000;stroke-width:0.8;" x="57.6" xlink:href="#m5047933f1c" y="276.513882"/>
      </g>
     </g>
     <g id="text_7">
      <!-- 0.0 -->
      <defs>
       <path d="M 5.8125 5.03125 
Q 5.8125 7.671875 7.609375 9.46875 
Q 9.421875 11.28125 12.109375 11.28125 
Q 14.84375 11.28125 16.640625 9.453125 
Q 18.453125 7.625 18.453125 5.03125 
Q 18.453125 2.484375 16.640625 0.65625 
Q 14.84375 -1.171875 12.0625 -1.171875 
Q 9.375 -1.171875 7.59375 0.65625 
Q 5.8125 2.484375 5.8125 5.03125 
z
" id="MicrosoftYaHei-2e"/>
      </defs>
      <g transform="translate(36.464062 280.510757)scale(0.1 -0.1)">
       <use xlink:href="#MicrosoftYaHei-30"/>
       <use x="58.642578" xlink:href="#MicrosoftYaHei-2e"/>
       <use x="82.714844" xlink:href="#MicrosoftYaHei-30"/>
      </g>
     </g>
    </g>
    <g id="ytick_2">
     <g id="line2d_13">
      <path clip-path="url(#pf61961184f)" d="M 57.6 238.565647 
L 414.72 238.565647 
" style="fill:none;stroke:#b0b0b0;stroke-linecap:square;stroke-width:0.8;"/>
     </g>
     <g id="line2d_14">
      <g>
       <use style="stroke:#000000;stroke-width:0.8;" x="57.6" xlink:href="#m5047933f1c" y="238.565647"/>
      </g>
     </g>
     <g id="text_8">
      <!-- 0.2 -->
      <g transform="translate(36.464062 242.562522)scale(0.1 -0.1)">
       <use xlink:href="#MicrosoftYaHei-30"/>
       <use x="58.642578" xlink:href="#MicrosoftYaHei-2e"/>
       <use x="82.714844" xlink:href="#MicrosoftYaHei-32"/>
      </g>
     </g>
    </g>
    <g id="ytick_3">
     <g id="line2d_15">
      <path clip-path="url(#pf61961184f)" d="M 57.6 200.617412 
L 414.72 200.617412 
" style="fill:none;stroke:#b0b0b0;stroke-linecap:square;stroke-width:0.8;"/>
     </g>
     <g id="line2d_16">
      <g>
       <use style="stroke:#000000;stroke-width:0.8;" x="57.6" xlink:href="#m5047933f1c" y="200.617412"/>
      </g>
     </g>
     <g id="text_9">
      <!-- 0.4 -->
      <g transform="translate(36.464062 204.614287)scale(0.1 -0.1)">
       <use xlink:href="#MicrosoftYaHei-30"/>
       <use x="58.642578" xlink:href="#MicrosoftYaHei-2e"/>
       <use x="82.714844" xlink:href="#MicrosoftYaHei-34"/>
      </g>
     </g>
    </g>
    <g id="ytick_4">
     <g id="line2d_17">
      <path clip-path="url(#pf61961184f)" d="M 57.6 162.669176 
L 414.72 162.669176 
" style="fill:none;stroke:#b0b0b0;stroke-linecap:square;stroke-width:0.8;"/>
     </g>
     <g id="line2d_18">
      <g>
       <use style="stroke:#000000;stroke-width:0.8;" x="57.6" xlink:href="#m5047933f1c" y="162.669176"/>
      </g>
     </g>
     <g id="text_10">
      <!-- 0.6 -->
      <g transform="translate(36.464062 166.666051)scale(0.1 -0.1)">
       <use xlink:href="#MicrosoftYaHei-30"/>
       <use x="58.642578" xlink:href="#MicrosoftYaHei-2e"/>
       <use x="82.714844" xlink:href="#MicrosoftYaHei-36"/>
      </g>
     </g>
    </g>
    <g id="ytick_5">
     <g id="line2d_19">
      <path clip-path="url(#pf61961184f)" d="M 57.6 124.720941 
L 414.72 124.720941 
" style="fill:none;stroke:#b0b0b0;stroke-linecap:square;stroke-width:0.8;"/>
     </g>
     <g id="line2d_20">
      <g>
       <use style="stroke:#000000;stroke-width:0.8;" x="57.6" xlink:href="#m5047933f1c" y="124.720941"/>
      </g>
     </g>
     <g id="text_11">
      <!-- 0.8 -->
      <g transform="translate(36.464062 128.717816)scale(0.1 -0.1)">
       <use xlink:href="#MicrosoftYaHei-30"/>
       <use x="58.642578" xlink:href="#MicrosoftYaHei-2e"/>
       <use x="82.714844" xlink:href="#MicrosoftYaHei-38"/>
      </g>
     </g>
    </g>
    <g id="ytick_6">
     <g id="line2d_21">
      <path clip-path="url(#pf61961184f)" d="M 57.6 86.772706 
L 414.72 86.772706 
" style="fill:none;stroke:#b0b0b0;stroke-linecap:square;stroke-width:0.8;"/>
     </g>
     <g id="line2d_22">
      <g>
       <use style="stroke:#000000;stroke-width:0.8;" x="57.6" xlink:href="#m5047933f1c" y="86.772706"/>
      </g>
     </g>
     <g id="text_12">
      <!-- 1.0 -->
      <defs>
       <path d="M 52.59375 0 
L 9.234375 0 
L 9.234375 8.25 
L 26.171875 8.25 
L 26.171875 65.671875 
L 8.796875 60.640625 
L 8.796875 69.4375 
L 35.6875 77.25 
L 35.6875 8.25 
L 52.59375 8.25 
z
" id="MicrosoftYaHei-31"/>
      </defs>
      <g transform="translate(36.464062 90.769581)scale(0.1 -0.1)">
       <use xlink:href="#MicrosoftYaHei-31"/>
       <use x="58.642578" xlink:href="#MicrosoftYaHei-2e"/>
       <use x="82.714844" xlink:href="#MicrosoftYaHei-30"/>
      </g>
     </g>
    </g>
    <g id="ytick_7">
     <g id="line2d_23">
      <path clip-path="url(#pf61961184f)" d="M 57.6 48.824471 
L 414.72 48.824471 
" style="fill:none;stroke:#b0b0b0;stroke-linecap:square;stroke-width:0.8;"/>
     </g>
     <g id="line2d_24">
      <g>
       <use style="stroke:#000000;stroke-width:0.8;" x="57.6" xlink:href="#m5047933f1c" y="48.824471"/>
      </g>
     </g>
     <g id="text_13">
      <!-- 1.2 -->
      <g transform="translate(36.464062 52.821346)scale(0.1 -0.1)">
       <use xlink:href="#MicrosoftYaHei-31"/>
       <use x="58.642578" xlink:href="#MicrosoftYaHei-2e"/>
       <use x="82.714844" xlink:href="#MicrosoftYaHei-32"/>
      </g>
     </g>
    </g>
    <g id="text_14">
     <!-- $S(t)$ -->
     <defs>
      <path d="M 60.296875 70.515625 
L 58.40625 60.890625 
Q 53.46875 63.53125 48.609375 64.875 
Q 43.75 66.21875 39.203125 66.21875 
Q 30.375 66.21875 25.140625 62.359375 
Q 19.921875 58.5 19.921875 52.09375 
Q 19.921875 48.578125 21.84375 46.703125 
Q 23.78125 44.828125 31.78125 42.671875 
L 37.703125 41.21875 
Q 47.703125 38.625 51.609375 34.640625 
Q 55.515625 30.671875 55.515625 23.484375 
Q 55.515625 12.453125 46.84375 5.515625 
Q 38.1875 -1.421875 24.03125 -1.421875 
Q 18.21875 -1.421875 12.359375 -0.265625 
Q 6.5 0.875 0.59375 3.21875 
L 2.59375 13.375 
Q 8.015625 10.015625 13.453125 8.296875 
Q 18.890625 6.59375 24.3125 6.59375 
Q 33.546875 6.59375 39.109375 10.6875 
Q 44.671875 14.796875 44.671875 21.390625 
Q 44.671875 25.78125 42.453125 28.046875 
Q 40.234375 30.328125 32.90625 32.171875 
L 27 33.6875 
Q 16.890625 36.328125 13.203125 39.765625 
Q 9.515625 43.21875 9.515625 49.421875 
Q 9.515625 60.296875 17.890625 67.25 
Q 26.265625 74.21875 39.703125 74.21875 
Q 44.921875 74.21875 50.046875 73.28125 
Q 55.171875 72.359375 60.296875 70.515625 
z
" id="DejaVuSans-Oblique-53"/>
      <path d="M 31 75.875 
Q 24.46875 64.65625 21.28125 53.65625 
Q 18.109375 42.671875 18.109375 31.390625 
Q 18.109375 20.125 21.3125 9.0625 
Q 24.515625 -2 31 -13.1875 
L 23.1875 -13.1875 
Q 15.875 -1.703125 12.234375 9.375 
Q 8.59375 20.453125 8.59375 31.390625 
Q 8.59375 42.28125 12.203125 53.3125 
Q 15.828125 64.359375 23.1875 75.875 
z
" id="DejaVuSans-28"/>
      <path d="M 42.28125 54.6875 
L 40.921875 47.703125 
L 23 47.703125 
L 17.1875 18.015625 
Q 16.890625 16.359375 16.75 15.234375 
Q 16.609375 14.109375 16.609375 13.484375 
Q 16.609375 10.359375 18.484375 8.9375 
Q 20.359375 7.515625 24.515625 7.515625 
L 33.59375 7.515625 
L 32.078125 0 
L 23.484375 0 
Q 15.484375 0 11.546875 3.125 
Q 7.625 6.25 7.625 12.59375 
Q 7.625 13.71875 7.765625 15.0625 
Q 7.90625 16.40625 8.203125 18.015625 
L 14.015625 47.703125 
L 6.390625 47.703125 
L 7.8125 54.6875 
L 15.28125 54.6875 
L 18.3125 70.21875 
L 27.296875 70.21875 
L 24.3125 54.6875 
z
" id="DejaVuSans-Oblique-74"/>
      <path d="M 8.015625 75.875 
L 15.828125 75.875 
Q 23.140625 64.359375 26.78125 53.3125 
Q 30.421875 42.28125 30.421875 31.390625 
Q 30.421875 20.453125 26.78125 9.375 
Q 23.140625 -1.703125 15.828125 -13.1875 
L 8.015625 -13.1875 
Q 14.5 -2 17.703125 9.0625 
Q 20.90625 20.125 20.90625 31.390625 
Q 20.90625 42.671875 17.703125 53.65625 
Q 14.5 64.65625 8.015625 75.875 
z
" id="DejaVuSans-29"/>
     </defs>
     <g transform="translate(29.978125 183.578)rotate(-90)scale(0.1 -0.1)">
      <use transform="translate(0 0.125)" xlink:href="#DejaVuSans-Oblique-53"/>
      <use transform="translate(63.476562 0.125)" xlink:href="#DejaVuSans-28"/>
      <use transform="translate(102.490234 0.125)" xlink:href="#DejaVuSans-Oblique-74"/>
      <use transform="translate(141.699219 0.125)" xlink:href="#DejaVuSans-29"/>
     </g>
    </g>
   </g>
   <g id="line2d_25">
    <path clip-path="url(#pf61961184f)" d="M 73.832727 276.513882 
L 106.461325 276.513882 
L 108.092755 276.276706 
L 109.724185 275.565176 
L 111.355614 274.379294 
L 112.987044 272.719059 
L 114.618474 270.584471 
L 116.249904 267.975529 
L 117.881334 264.892235 
L 119.512764 261.334588 
L 121.144194 257.302588 
L 122.775624 252.796235 
L 124.407053 247.815529 
L 126.038483 242.360471 
L 127.669913 236.431059 
L 129.301343 230.027294 
L 132.564203 215.796706 
L 135.827063 199.668706 
L 139.089922 181.643294 
L 140.721352 172.630588 
L 142.352782 164.566588 
L 143.984212 157.451294 
L 145.615642 151.284706 
L 147.247072 146.066824 
L 148.878502 141.797647 
L 150.509931 138.477176 
L 152.141361 136.105412 
L 153.772791 134.682353 
L 155.404221 134.208 
L 157.035651 134.682353 
L 158.667081 136.105412 
L 160.298511 138.477176 
L 161.929941 141.797647 
L 163.56137 146.066824 
L 165.1928 151.284706 
L 166.82423 157.451294 
L 168.45566 164.566588 
L 170.08709 172.630588 
L 174.98138 199.668706 
L 178.244239 215.796706 
L 181.507099 230.027294 
L 183.138529 236.431059 
L 184.769959 242.360471 
L 186.401389 247.815529 
L 188.032819 252.796235 
L 189.664249 257.302588 
L 191.295678 261.334588 
L 192.927108 264.892235 
L 194.558538 267.975529 
L 196.189968 270.584471 
L 197.821398 272.719059 
L 199.452828 274.379294 
L 201.084258 275.565176 
L 202.715688 276.276706 
L 204.347117 276.513882 
L 398.487273 276.513882 
L 398.487273 276.513882 
" style="fill:none;stroke:#1f77b4;stroke-linecap:square;stroke-width:1.5;"/>
   </g>
   <g id="line2d_26">
    <path clip-path="url(#pf61961184f)" d="M 73.832727 276.513882 
L 106.461325 276.513882 
L 108.092755 276.229271 
L 109.724185 275.375435 
L 111.355614 273.952376 
L 112.987044 271.960094 
L 114.618474 269.398588 
L 116.249904 266.267859 
L 117.881334 262.567906 
L 119.512764 258.298729 
L 121.144194 253.460329 
L 122.775624 248.052706 
L 124.407053 242.075859 
L 126.038483 235.529788 
L 127.669913 228.414494 
L 129.301343 220.729976 
L 132.564203 203.653271 
L 135.827063 184.299671 
L 139.089922 162.669176 
L 140.721352 151.853929 
L 142.352782 142.177129 
L 143.984212 133.638776 
L 145.615642 126.238871 
L 147.247072 119.977412 
L 148.878502 114.8544 
L 150.509931 110.869835 
L 152.141361 108.023718 
L 153.772791 106.316047 
L 155.404221 105.746824 
L 157.035651 106.316047 
L 158.667081 108.023718 
L 160.298511 110.869835 
L 161.929941 114.8544 
L 163.56137 119.977412 
L 165.1928 126.238871 
L 166.82423 133.638776 
L 168.45566 142.177129 
L 170.08709 151.853929 
L 174.98138 184.299671 
L 178.244239 203.653271 
L 181.507099 220.729976 
L 183.138529 228.414494 
L 184.769959 235.529788 
L 186.401389 242.075859 
L 188.032819 248.052706 
L 189.664249 253.460329 
L 191.295678 258.298729 
L 192.927108 262.567906 
L 194.558538 266.267859 
L 196.189968 269.398588 
L 197.821398 271.960094 
L 199.452828 273.952376 
L 201.084258 275.375435 
L 202.715688 276.229271 
L 204.347117 276.513882 
L 398.487273 276.513882 
L 398.487273 276.513882 
" style="fill:none;stroke:#8c564b;stroke-dasharray:5.55,2.4;stroke-dashoffset:0;stroke-width:1.5;"/>
   </g>
   <g id="line2d_27">
    <path clip-path="url(#pf61961184f)" d="M 73.832727 276.513882 
L 139.089922 276.513882 
L 140.721352 276.276706 
L 142.352782 275.565176 
L 143.984212 274.379294 
L 145.615642 272.719059 
L 147.247072 270.584471 
L 148.878502 267.975529 
L 150.509931 264.892235 
L 152.141361 261.334588 
L 153.772791 257.302588 
L 155.404221 252.796235 
L 157.035651 247.815529 
L 158.667081 242.360471 
L 160.298511 236.431059 
L 161.929941 230.027294 
L 165.1928 215.796706 
L 168.45566 199.668706 
L 171.71852 181.643294 
L 173.34995 172.630588 
L 174.98138 164.566588 
L 176.61281 157.451294 
L 178.244239 151.284706 
L 179.875669 146.066824 
L 181.507099 141.797647 
L 183.138529 138.477176 
L 184.769959 136.105412 
L 186.401389 134.682353 
L 188.032819 134.208 
L 189.664249 134.682353 
L 191.295678 136.105412 
L 192.927108 138.477176 
L 194.558538 141.797647 
L 196.189968 146.066824 
L 197.821398 151.284706 
L 199.452828 157.451294 
L 201.084258 164.566588 
L 202.715688 172.630588 
L 207.609977 199.668706 
L 210.872837 215.796706 
L 214.135697 230.027294 
L 215.767127 236.431059 
L 217.398556 242.360471 
L 219.029986 247.815529 
L 220.661416 252.796235 
L 222.292846 257.302588 
L 223.924276 261.334588 
L 225.555706 264.892235 
L 227.187136 267.975529 
L 228.818566 270.584471 
L 230.449995 272.719059 
L 232.081425 274.379294 
L 233.712855 275.565176 
L 235.344285 276.276706 
L 236.975715 276.513882 
L 398.487273 276.513882 
L 398.487273 276.513882 
" style="fill:none;stroke:#ff7f0e;stroke-linecap:square;stroke-width:1.5;"/>
   </g>
   <g id="line2d_28">
    <path clip-path="url(#pf61961184f)" d="M 73.832727 276.513882 
L 139.089922 276.513882 
L 140.721352 276.324141 
L 142.352782 275.754918 
L 143.984212 274.806212 
L 145.615642 273.478024 
L 147.247072 271.770353 
L 148.878502 269.6832 
L 150.509931 267.216565 
L 152.141361 264.370447 
L 153.772791 261.144847 
L 155.404221 257.539765 
L 157.035651 253.5552 
L 158.667081 249.191153 
L 160.298511 244.447624 
L 161.929941 239.324612 
L 165.1928 227.940141 
L 168.45566 215.037741 
L 171.71852 200.617412 
L 173.34995 193.407247 
L 174.98138 186.956047 
L 176.61281 181.263812 
L 178.244239 176.330541 
L 179.875669 172.156235 
L 181.507099 168.740894 
L 183.138529 166.084518 
L 184.769959 164.187106 
L 186.401389 163.048659 
L 188.032819 162.669176 
L 189.664249 163.048659 
L 191.295678 164.187106 
L 192.927108 166.084518 
L 194.558538 168.740894 
L 196.189968 172.156235 
L 197.821398 176.330541 
L 199.452828 181.263812 
L 201.084258 186.956047 
L 202.715688 193.407247 
L 207.609977 215.037741 
L 210.872837 227.940141 
L 214.135697 239.324612 
L 215.767127 244.447624 
L 217.398556 249.191153 
L 219.029986 253.5552 
L 220.661416 257.539765 
L 222.292846 261.144847 
L 223.924276 264.370447 
L 225.555706 267.216565 
L 227.187136 269.6832 
L 228.818566 271.770353 
L 230.449995 273.478024 
L 232.081425 274.806212 
L 233.712855 275.754918 
L 235.344285 276.324141 
L 236.975715 276.513882 
L 398.487273 276.513882 
L 398.487273 276.513882 
" style="fill:none;stroke:#8c564b;stroke-dasharray:5.55,2.4;stroke-dashoffset:0;stroke-width:1.5;"/>
   </g>
   <g id="line2d_29">
    <path clip-path="url(#pf61961184f)" d="M 73.832727 276.513882 
L 171.71852 276.513882 
L 173.34995 276.276706 
L 174.98138 275.565176 
L 176.61281 274.379294 
L 178.244239 272.719059 
L 179.875669 270.584471 
L 181.507099 267.975529 
L 183.138529 264.892235 
L 184.769959 261.334588 
L 186.401389 257.302588 
L 188.032819 252.796235 
L 189.664249 247.815529 
L 191.295678 242.360471 
L 192.927108 236.431059 
L 194.558538 230.027294 
L 197.821398 215.796706 
L 201.084258 199.668706 
L 204.347117 181.643294 
L 205.978547 172.630588 
L 207.609977 164.566588 
L 209.241407 157.451294 
L 210.872837 151.284706 
L 212.504267 146.066824 
L 214.135697 141.797647 
L 215.767127 138.477176 
L 217.398556 136.105412 
L 219.029986 134.682353 
L 220.661416 134.208 
L 222.292846 134.682353 
L 223.924276 136.105412 
L 225.555706 138.477176 
L 227.187136 141.797647 
L 228.818566 146.066824 
L 230.449995 151.284706 
L 232.081425 157.451294 
L 233.712855 164.566588 
L 235.344285 172.630588 
L 240.238575 199.668706 
L 243.501434 215.796706 
L 246.764294 230.027294 
L 248.395724 236.431059 
L 250.027154 242.360471 
L 251.658584 247.815529 
L 253.290014 252.796235 
L 254.921444 257.302588 
L 256.552873 261.334588 
L 258.184303 264.892235 
L 259.815733 267.975529 
L 261.447163 270.584471 
L 263.078593 272.719059 
L 264.710023 274.379294 
L 266.341453 275.565176 
L 267.972883 276.276706 
L 269.604312 276.513882 
L 398.487273 276.513882 
L 398.487273 276.513882 
" style="fill:none;stroke:#2ca02c;stroke-linecap:square;stroke-width:1.5;"/>
   </g>
   <g id="line2d_30">
    <path clip-path="url(#pf61961184f)" d="M 73.832727 276.513882 
L 171.71852 276.513882 
L 173.34995 276.252988 
L 174.98138 275.470306 
L 176.61281 274.165835 
L 178.244239 272.339576 
L 179.875669 269.991529 
L 181.507099 267.121694 
L 183.138529 263.730071 
L 184.769959 259.816659 
L 186.401389 255.381459 
L 188.032819 250.424471 
L 189.664249 244.945694 
L 191.295678 238.945129 
L 192.927108 232.422776 
L 194.558538 225.378635 
L 197.821398 209.724988 
L 201.084258 191.984188 
L 204.347117 172.156235 
L 205.978547 162.242259 
L 207.609977 153.371859 
L 209.241407 145.545035 
L 210.872837 138.761788 
L 212.504267 133.022118 
L 214.135697 128.326024 
L 215.767127 124.673506 
L 217.398556 122.064565 
L 219.029986 120.4992 
L 220.661416 119.977412 
L 222.292846 120.4992 
L 223.924276 122.064565 
L 225.555706 124.673506 
L 227.187136 128.326024 
L 228.818566 133.022118 
L 230.449995 138.761788 
L 232.081425 145.545035 
L 233.712855 153.371859 
L 235.344285 162.242259 
L 240.238575 191.984188 
L 243.501434 209.724988 
L 246.764294 225.378635 
L 248.395724 232.422776 
L 250.027154 238.945129 
L 251.658584 244.945694 
L 253.290014 250.424471 
L 254.921444 255.381459 
L 256.552873 259.816659 
L 258.184303 263.730071 
L 259.815733 267.121694 
L 261.447163 269.991529 
L 263.078593 272.339576 
L 264.710023 274.165835 
L 266.341453 275.470306 
L 267.972883 276.252988 
L 269.604312 276.513882 
L 398.487273 276.513882 
L 398.487273 276.513882 
" style="fill:none;stroke:#8c564b;stroke-dasharray:5.55,2.4;stroke-dashoffset:0;stroke-width:1.5;"/>
   </g>
   <g id="line2d_31">
    <path clip-path="url(#pf61961184f)" d="M 73.832727 276.513882 
L 204.347117 276.513882 
L 205.978547 276.276706 
L 207.609977 275.565176 
L 209.241407 274.379294 
L 210.872837 272.719059 
L 212.504267 270.584471 
L 214.135697 267.975529 
L 215.767127 264.892235 
L 217.398556 261.334588 
L 219.029986 257.302588 
L 220.661416 252.796235 
L 222.292846 247.815529 
L 223.924276 242.360471 
L 225.555706 236.431059 
L 227.187136 230.027294 
L 230.449995 215.796706 
L 233.712855 199.668706 
L 236.975715 181.643294 
L 238.607145 172.630588 
L 240.238575 164.566588 
L 241.870005 157.451294 
L 243.501434 151.284706 
L 245.132864 146.066824 
L 246.764294 141.797647 
L 248.395724 138.477176 
L 250.027154 136.105412 
L 251.658584 134.682353 
L 253.290014 134.208 
L 254.921444 134.682353 
L 256.552873 136.105412 
L 258.184303 138.477176 
L 259.815733 141.797647 
L 261.447163 146.066824 
L 263.078593 151.284706 
L 264.710023 157.451294 
L 266.341453 164.566588 
L 267.972883 172.630588 
L 272.867172 199.668706 
L 276.130032 215.796706 
L 279.392892 230.027294 
L 281.024322 236.431059 
L 282.655751 242.360471 
L 284.287181 247.815529 
L 285.918611 252.796235 
L 287.550041 257.302588 
L 289.181471 261.334588 
L 290.812901 264.892235 
L 292.444331 267.975529 
L 294.075761 270.584471 
L 295.70719 272.719059 
L 297.33862 274.379294 
L 298.97005 275.565176 
L 300.60148 276.276706 
L 302.23291 276.513882 
L 398.487273 276.513882 
L 398.487273 276.513882 
" style="fill:none;stroke:#d62728;stroke-linecap:square;stroke-width:1.5;"/>
   </g>
   <g id="line2d_32">
    <path clip-path="url(#pf61961184f)" d="M 73.832727 276.513882 
L 204.347117 276.513882 
L 205.978547 276.229271 
L 207.609977 275.375435 
L 209.241407 273.952376 
L 210.872837 271.960094 
L 212.504267 269.398588 
L 214.135697 266.267859 
L 215.767127 262.567906 
L 217.398556 258.298729 
L 219.029986 253.460329 
L 220.661416 248.052706 
L 222.292846 242.075859 
L 223.924276 235.529788 
L 225.555706 228.414494 
L 227.187136 220.729976 
L 230.449995 203.653271 
L 233.712855 184.299671 
L 236.975715 162.669176 
L 238.607145 151.853929 
L 240.238575 142.177129 
L 241.870005 133.638776 
L 243.501434 126.238871 
L 245.132864 119.977412 
L 246.764294 114.8544 
L 248.395724 110.869835 
L 250.027154 108.023718 
L 251.658584 106.316047 
L 253.290014 105.746824 
L 254.921444 106.316047 
L 256.552873 108.023718 
L 258.184303 110.869835 
L 259.815733 114.8544 
L 261.447163 119.977412 
L 263.078593 126.238871 
L 264.710023 133.638776 
L 266.341453 142.177129 
L 267.972883 151.853929 
L 272.867172 184.299671 
L 276.130032 203.653271 
L 279.392892 220.729976 
L 281.024322 228.414494 
L 282.655751 235.529788 
L 284.287181 242.075859 
L 285.918611 248.052706 
L 287.550041 253.460329 
L 289.181471 258.298729 
L 290.812901 262.567906 
L 292.444331 266.267859 
L 294.075761 269.398588 
L 295.70719 271.960094 
L 297.33862 273.952376 
L 298.97005 275.375435 
L 300.60148 276.229271 
L 302.23291 276.513882 
L 398.487273 276.513882 
L 398.487273 276.513882 
" style="fill:none;stroke:#8c564b;stroke-dasharray:5.55,2.4;stroke-dashoffset:0;stroke-width:1.5;"/>
   </g>
   <g id="line2d_33">
    <path clip-path="url(#pf61961184f)" d="M 73.832727 276.513882 
L 236.975715 276.513882 
L 238.607145 276.276706 
L 240.238575 275.565176 
L 241.870005 274.379294 
L 243.501434 272.719059 
L 245.132864 270.584471 
L 246.764294 267.975529 
L 248.395724 264.892235 
L 250.027154 261.334588 
L 251.658584 257.302588 
L 253.290014 252.796235 
L 254.921444 247.815529 
L 256.552873 242.360471 
L 258.184303 236.431059 
L 259.815733 230.027294 
L 263.078593 215.796706 
L 266.341453 199.668706 
L 269.604312 181.643294 
L 271.235742 172.630588 
L 272.867172 164.566588 
L 274.498602 157.451294 
L 276.130032 151.284706 
L 277.761462 146.066824 
L 279.392892 141.797647 
L 281.024322 138.477176 
L 282.655751 136.105412 
L 284.287181 134.682353 
L 285.918611 134.208 
L 287.550041 134.682353 
L 289.181471 136.105412 
L 290.812901 138.477176 
L 292.444331 141.797647 
L 294.075761 146.066824 
L 295.70719 151.284706 
L 297.33862 157.451294 
L 298.97005 164.566588 
L 300.60148 172.630588 
L 305.49577 199.668706 
L 308.75863 215.796706 
L 312.021489 230.027294 
L 313.652919 236.431059 
L 315.284349 242.360471 
L 316.915779 247.815529 
L 318.547209 252.796235 
L 320.178639 257.302588 
L 321.810069 261.334588 
L 323.441498 264.892235 
L 325.072928 267.975529 
L 326.704358 270.584471 
L 328.335788 272.719059 
L 329.967218 274.379294 
L 331.598648 275.565176 
L 333.230078 276.276706 
L 334.861508 276.513882 
L 398.487273 276.513882 
L 398.487273 276.513882 
" style="fill:none;stroke:#9467bd;stroke-linecap:square;stroke-width:1.5;"/>
   </g>
   <g id="line2d_34">
    <path clip-path="url(#pf61961184f)" d="M 73.832727 276.513882 
L 236.975715 276.513882 
L 238.607145 276.252988 
L 240.238575 275.470306 
L 241.870005 274.165835 
L 243.501434 272.339576 
L 245.132864 269.991529 
L 246.764294 267.121694 
L 248.395724 263.730071 
L 250.027154 259.816659 
L 251.658584 255.381459 
L 253.290014 250.424471 
L 254.921444 244.945694 
L 256.552873 238.945129 
L 258.184303 232.422776 
L 259.815733 225.378635 
L 263.078593 209.724988 
L 266.341453 191.984188 
L 269.604312 172.156235 
L 271.235742 162.242259 
L 272.867172 153.371859 
L 274.498602 145.545035 
L 276.130032 138.761788 
L 277.761462 133.022118 
L 279.392892 128.326024 
L 281.024322 124.673506 
L 282.655751 122.064565 
L 284.287181 120.4992 
L 285.918611 119.977412 
L 287.550041 120.4992 
L 289.181471 122.064565 
L 290.812901 124.673506 
L 292.444331 128.326024 
L 294.075761 133.022118 
L 295.70719 138.761788 
L 297.33862 145.545035 
L 298.97005 153.371859 
L 300.60148 162.242259 
L 305.49577 191.984188 
L 308.75863 209.724988 
L 312.021489 225.378635 
L 313.652919 232.422776 
L 315.284349 238.945129 
L 316.915779 244.945694 
L 318.547209 250.424471 
L 320.178639 255.381459 
L 321.810069 259.816659 
L 323.441498 263.730071 
L 325.072928 267.121694 
L 326.704358 269.991529 
L 328.335788 272.339576 
L 329.967218 274.165835 
L 331.598648 275.470306 
L 333.230078 276.252988 
L 334.861508 276.513882 
L 398.487273 276.513882 
L 398.487273 276.513882 
" style="fill:none;stroke:#8c564b;stroke-dasharray:5.55,2.4;stroke-dashoffset:0;stroke-width:1.5;"/>
   </g>
   <g id="line2d_35">
    <path clip-path="url(#pf61961184f)" d="M 73.832727 276.513882 
L 106.461325 276.513882 
L 108.092755 276.229271 
L 109.724185 275.375435 
L 111.355614 273.952376 
L 112.987044 271.960094 
L 114.618474 269.398588 
L 116.249904 266.267859 
L 117.881334 262.567906 
L 119.512764 258.298729 
L 121.144194 253.460329 
L 122.775624 248.052706 
L 124.407053 242.075859 
L 126.038483 235.529788 
L 127.669913 228.414494 
L 129.301343 220.729976 
L 132.564203 203.653271 
L 135.827063 184.299671 
L 139.089922 162.669176 
L 140.721352 151.664188 
L 142.352782 141.418165 
L 143.984212 131.931106 
L 145.615642 123.203012 
L 147.247072 115.233882 
L 148.878502 108.023718 
L 150.509931 101.572518 
L 152.141361 95.880282 
L 153.772791 90.947012 
L 155.404221 86.772706 
L 157.035651 83.357365 
L 158.667081 80.700988 
L 160.298511 78.803576 
L 161.929941 77.665129 
L 163.56137 77.285647 
L 165.1928 77.665129 
L 166.82423 78.803576 
L 168.45566 80.700988 
L 170.08709 83.357365 
L 174.98138 93.698259 
L 176.61281 96.662965 
L 178.244239 99.295624 
L 179.875669 101.596235 
L 181.507099 103.5648 
L 183.138529 105.201318 
L 184.769959 106.505788 
L 186.401389 107.478212 
L 188.032819 108.118588 
L 189.664249 108.426918 
L 191.295678 108.4032 
L 192.927108 108.047435 
L 194.558538 107.359624 
L 196.189968 106.339765 
L 197.821398 104.987859 
L 199.452828 103.303906 
L 201.084258 101.287906 
L 202.715688 98.939859 
L 210.872837 85.634259 
L 214.135697 80.890729 
L 217.398556 76.526682 
L 220.661416 72.542118 
L 223.924276 68.937035 
L 227.187136 65.711435 
L 230.449995 62.865318 
L 233.712855 60.398682 
L 236.975715 58.311529 
L 240.238575 56.603859 
L 243.501434 55.275671 
L 246.764294 54.326965 
L 250.027154 53.757741 
L 253.290014 53.568 
L 256.552873 53.757741 
L 259.815733 54.326965 
L 263.078593 55.275671 
L 266.341453 56.603859 
L 269.604312 58.311529 
L 271.235742 59.497412 
L 272.867172 61.157647 
L 274.498602 63.292235 
L 276.130032 65.901176 
L 277.761462 68.984471 
L 279.392892 72.542118 
L 281.024322 76.574118 
L 282.655751 81.080471 
L 284.287181 86.061176 
L 285.918611 91.516235 
L 287.550041 97.445647 
L 289.181471 103.849412 
L 292.444331 118.08 
L 295.70719 134.208 
L 298.97005 152.233412 
L 302.23291 172.156235 
L 305.49577 191.984188 
L 308.75863 209.724988 
L 312.021489 225.378635 
L 313.652919 232.422776 
L 315.284349 238.945129 
L 316.915779 244.945694 
L 318.547209 250.424471 
L 320.178639 255.381459 
L 321.810069 259.816659 
L 323.441498 263.730071 
L 325.072928 267.121694 
L 326.704358 269.991529 
L 328.335788 272.339576 
L 329.967218 274.165835 
L 331.598648 275.470306 
L 333.230078 276.252988 
L 334.861508 276.513882 
L 398.487273 276.513882 
L 398.487273 276.513882 
" style="fill:none;stroke:#8c564b;stroke-linecap:square;stroke-width:1.5;"/>
   </g>
   <g id="line2d_36">
    <defs>
     <path d="M -4 4 
L 4 -4 
M -4 -4 
L 4 4 
" id="m11fb1fab45" style="stroke:#008000;stroke-width:3;"/>
    </defs>
    <g clip-path="url(#pf61961184f)">
     <use style="fill:#008000;stroke:#008000;stroke-width:3;" x="106.461325" xlink:href="#m11fb1fab45" y="276.513882"/>
     <use style="fill:#008000;stroke:#008000;stroke-width:3;" x="139.089922" xlink:href="#m11fb1fab45" y="276.513882"/>
     <use style="fill:#008000;stroke:#008000;stroke-width:3;" x="171.71852" xlink:href="#m11fb1fab45" y="276.513882"/>
     <use style="fill:#008000;stroke:#008000;stroke-width:3;" x="204.347117" xlink:href="#m11fb1fab45" y="276.513882"/>
     <use style="fill:#008000;stroke:#008000;stroke-width:3;" x="236.975715" xlink:href="#m11fb1fab45" y="276.513882"/>
     <use style="fill:#008000;stroke:#008000;stroke-width:3;" x="269.604312" xlink:href="#m11fb1fab45" y="276.513882"/>
     <use style="fill:#008000;stroke:#008000;stroke-width:3;" x="302.23291" xlink:href="#m11fb1fab45" y="276.513882"/>
     <use style="fill:#008000;stroke:#008000;stroke-width:3;" x="334.861508" xlink:href="#m11fb1fab45" y="276.513882"/>
    </g>
   </g>
   <g id="line2d_37">
    <path clip-path="url(#pf61961184f)" d="M 106.461325 295.488 
" style="fill:none;stroke:#8c564b;stroke-linecap:square;stroke-width:1.5;"/>
   </g>
   <g id="patch_3">
    <path d="M 57.6 307.584 
L 57.6 41.472 
" style="fill:none;stroke:#000000;stroke-linecap:square;stroke-linejoin:miter;stroke-width:0.8;"/>
   </g>
   <g id="patch_4">
    <path d="M 414.72 307.584 
L 414.72 41.472 
" style="fill:none;stroke:#000000;stroke-linecap:square;stroke-linejoin:miter;stroke-width:0.8;"/>
   </g>
   <g id="patch_5">
    <path d="M 57.6 307.584 
L 414.72 307.584 
" style="fill:none;stroke:#000000;stroke-linecap:square;stroke-linejoin:miter;stroke-width:0.8;"/>
   </g>
   <g id="patch_6">
    <path d="M 57.6 41.472 
L 414.72 41.472 
" style="fill:none;stroke:#000000;stroke-linecap:square;stroke-linejoin:miter;stroke-width:0.8;"/>
   </g>
   <g id="text_15">
    <!-- $1.2$ -->
    <defs>
     <path d="M 12.40625 8.296875 
L 28.515625 8.296875 
L 28.515625 63.921875 
L 10.984375 60.40625 
L 10.984375 69.390625 
L 28.421875 72.90625 
L 38.28125 72.90625 
L 38.28125 8.296875 
L 54.390625 8.296875 
L 54.390625 0 
L 12.40625 0 
z
" id="DejaVuSans-31"/>
     <path d="M 10.6875 12.40625 
L 21 12.40625 
L 21 0 
L 10.6875 0 
z
" id="DejaVuSans-2e"/>
     <path d="M 19.1875 8.296875 
L 53.609375 8.296875 
L 53.609375 0 
L 7.328125 0 
L 7.328125 8.296875 
Q 12.9375 14.109375 22.625 23.890625 
Q 32.328125 33.6875 34.8125 36.53125 
Q 39.546875 41.84375 41.421875 45.53125 
Q 43.3125 49.21875 43.3125 52.78125 
Q 43.3125 58.59375 39.234375 62.25 
Q 35.15625 65.921875 28.609375 65.921875 
Q 23.96875 65.921875 18.8125 64.3125 
Q 13.671875 62.703125 7.8125 59.421875 
L 7.8125 69.390625 
Q 13.765625 71.78125 18.9375 73 
Q 24.125 74.21875 28.421875 74.21875 
Q 39.75 74.21875 46.484375 68.546875 
Q 53.21875 62.890625 53.21875 53.421875 
Q 53.21875 48.921875 51.53125 44.890625 
Q 49.859375 40.875 45.40625 35.40625 
Q 44.1875 33.984375 37.640625 27.21875 
Q 31.109375 20.453125 19.1875 8.296875 
z
" id="DejaVuSans-32"/>
    </defs>
    <g transform="translate(147.247072 153.182118)scale(0.1 -0.1)">
     <use transform="translate(0 0.78125)" xlink:href="#DejaVuSans-31"/>
     <use transform="translate(63.623047 0.78125)" xlink:href="#DejaVuSans-2e"/>
     <use transform="translate(95.332031 0.78125)" xlink:href="#DejaVuSans-32"/>
    </g>
   </g>
   <g id="text_16">
    <!-- $k_0$ -->
    <defs>
     <path d="M 18.3125 75.984375 
L 27.296875 75.984375 
L 18.703125 31.6875 
L 49.515625 54.6875 
L 61.1875 54.6875 
L 26.8125 28.515625 
L 51.90625 0 
L 41.015625 0 
L 17.671875 26.703125 
L 12.5 0 
L 3.515625 0 
z
" id="DejaVuSans-Oblique-6b"/>
     <path d="M 31.78125 66.40625 
Q 24.171875 66.40625 20.328125 58.90625 
Q 16.5 51.421875 16.5 36.375 
Q 16.5 21.390625 20.328125 13.890625 
Q 24.171875 6.390625 31.78125 6.390625 
Q 39.453125 6.390625 43.28125 13.890625 
Q 47.125 21.390625 47.125 36.375 
Q 47.125 51.421875 43.28125 58.90625 
Q 39.453125 66.40625 31.78125 66.40625 
z
M 31.78125 74.21875 
Q 44.046875 74.21875 50.515625 64.515625 
Q 56.984375 54.828125 56.984375 36.375 
Q 56.984375 17.96875 50.515625 8.265625 
Q 44.046875 -1.421875 31.78125 -1.421875 
Q 19.53125 -1.421875 13.0625 8.265625 
Q 6.59375 17.96875 6.59375 36.375 
Q 6.59375 54.828125 13.0625 64.515625 
Q 19.53125 74.21875 31.78125 74.21875 
z
" id="DejaVuSans-30"/>
    </defs>
    <g transform="translate(106.461325 295.488)scale(0.1 -0.1)">
     <use transform="translate(0 0.015625)" xlink:href="#DejaVuSans-Oblique-6b"/>
     <use transform="translate(57.910156 -16.390625)scale(0.7)" xlink:href="#DejaVuSans-30"/>
    </g>
   </g>
   <g id="text_17">
    <!-- $0.8$ -->
    <defs>
     <path d="M 31.78125 34.625 
Q 24.75 34.625 20.71875 30.859375 
Q 16.703125 27.09375 16.703125 20.515625 
Q 16.703125 13.921875 20.71875 10.15625 
Q 24.75 6.390625 31.78125 6.390625 
Q 38.8125 6.390625 42.859375 10.171875 
Q 46.921875 13.96875 46.921875 20.515625 
Q 46.921875 27.09375 42.890625 30.859375 
Q 38.875 34.625 31.78125 34.625 
z
M 21.921875 38.8125 
Q 15.578125 40.375 12.03125 44.71875 
Q 8.5 49.078125 8.5 55.328125 
Q 8.5 64.0625 14.71875 69.140625 
Q 20.953125 74.21875 31.78125 74.21875 
Q 42.671875 74.21875 48.875 69.140625 
Q 55.078125 64.0625 55.078125 55.328125 
Q 55.078125 49.078125 51.53125 44.71875 
Q 48 40.375 41.703125 38.8125 
Q 48.828125 37.15625 52.796875 32.3125 
Q 56.78125 27.484375 56.78125 20.515625 
Q 56.78125 9.90625 50.3125 4.234375 
Q 43.84375 -1.421875 31.78125 -1.421875 
Q 19.734375 -1.421875 13.25 4.234375 
Q 6.78125 9.90625 6.78125 20.515625 
Q 6.78125 27.484375 10.78125 32.3125 
Q 14.796875 37.15625 21.921875 38.8125 
z
M 18.3125 54.390625 
Q 18.3125 48.734375 21.84375 45.5625 
Q 25.390625 42.390625 31.78125 42.390625 
Q 38.140625 42.390625 41.71875 45.5625 
Q 45.3125 48.734375 45.3125 54.390625 
Q 45.3125 60.0625 41.71875 63.234375 
Q 38.140625 66.40625 31.78125 66.40625 
Q 25.390625 66.40625 21.84375 63.234375 
Q 18.3125 60.0625 18.3125 54.390625 
z
" id="DejaVuSans-38"/>
    </defs>
    <g transform="translate(179.875669 153.182118)scale(0.1 -0.1)">
     <use transform="translate(0 0.78125)" xlink:href="#DejaVuSans-30"/>
     <use transform="translate(63.623047 0.78125)" xlink:href="#DejaVuSans-2e"/>
     <use transform="translate(95.378906 0.78125)" xlink:href="#DejaVuSans-38"/>
    </g>
   </g>
   <g id="text_18">
    <!-- $k_1$ -->
    <g transform="translate(139.089922 295.488)scale(0.1 -0.1)">
     <use transform="translate(0 0.015625)" xlink:href="#DejaVuSans-Oblique-6b"/>
     <use transform="translate(57.910156 -16.390625)scale(0.7)" xlink:href="#DejaVuSans-31"/>
    </g>
   </g>
   <g id="text_19">
    <!-- $1.1$ -->
    <g transform="translate(212.504267 153.182118)scale(0.1 -0.1)">
     <use transform="translate(0 0.09375)" xlink:href="#DejaVuSans-31"/>
     <use transform="translate(63.623047 0.09375)" xlink:href="#DejaVuSans-2e"/>
     <use transform="translate(95.410156 0.09375)" xlink:href="#DejaVuSans-31"/>
    </g>
   </g>
   <g id="text_20">
    <!-- $k_2$ -->
    <g transform="translate(171.71852 295.488)scale(0.1 -0.1)">
     <use transform="translate(0 0.015625)" xlink:href="#DejaVuSans-Oblique-6b"/>
     <use transform="translate(57.910156 -16.390625)scale(0.7)" xlink:href="#DejaVuSans-32"/>
    </g>
   </g>
   <g id="text_21">
    <!-- $1.2$ -->
    <g transform="translate(245.132864 153.182118)scale(0.1 -0.1)">
     <use transform="translate(0 0.78125)" xlink:href="#DejaVuSans-31"/>
     <use transform="translate(63.623047 0.78125)" xlink:href="#DejaVuSans-2e"/>
     <use transform="translate(95.332031 0.78125)" xlink:href="#DejaVuSans-32"/>
    </g>
   </g>
   <g id="text_22">
    <!-- $k_3$ -->
    <defs>
     <path d="M 40.578125 39.3125 
Q 47.65625 37.796875 51.625 33 
Q 55.609375 28.21875 55.609375 21.1875 
Q 55.609375 10.40625 48.1875 4.484375 
Q 40.765625 -1.421875 27.09375 -1.421875 
Q 22.515625 -1.421875 17.65625 -0.515625 
Q 12.796875 0.390625 7.625 2.203125 
L 7.625 11.71875 
Q 11.71875 9.328125 16.59375 8.109375 
Q 21.484375 6.890625 26.8125 6.890625 
Q 36.078125 6.890625 40.9375 10.546875 
Q 45.796875 14.203125 45.796875 21.1875 
Q 45.796875 27.640625 41.28125 31.265625 
Q 36.765625 34.90625 28.71875 34.90625 
L 20.21875 34.90625 
L 20.21875 43.015625 
L 29.109375 43.015625 
Q 36.375 43.015625 40.234375 45.921875 
Q 44.09375 48.828125 44.09375 54.296875 
Q 44.09375 59.90625 40.109375 62.90625 
Q 36.140625 65.921875 28.71875 65.921875 
Q 24.65625 65.921875 20.015625 65.03125 
Q 15.375 64.15625 9.8125 62.3125 
L 9.8125 71.09375 
Q 15.4375 72.65625 20.34375 73.4375 
Q 25.25 74.21875 29.59375 74.21875 
Q 40.828125 74.21875 47.359375 69.109375 
Q 53.90625 64.015625 53.90625 55.328125 
Q 53.90625 49.265625 50.4375 45.09375 
Q 46.96875 40.921875 40.578125 39.3125 
z
" id="DejaVuSans-33"/>
    </defs>
    <g transform="translate(204.347117 295.488)scale(0.1 -0.1)">
     <use transform="translate(0 0.015625)" xlink:href="#DejaVuSans-Oblique-6b"/>
     <use transform="translate(57.910156 -16.390625)scale(0.7)" xlink:href="#DejaVuSans-33"/>
    </g>
   </g>
   <g id="text_23">
    <!-- $1.1$ -->
    <g transform="translate(277.761462 153.182118)scale(0.1 -0.1)">
     <use transform="translate(0 0.09375)" xlink:href="#DejaVuSans-31"/>
     <use transform="translate(63.623047 0.09375)" xlink:href="#DejaVuSans-2e"/>
     <use transform="translate(95.410156 0.09375)" xlink:href="#DejaVuSans-31"/>
    </g>
   </g>
   <g id="text_24">
    <!-- $k_4$ -->
    <defs>
     <path d="M 37.796875 64.3125 
L 12.890625 25.390625 
L 37.796875 25.390625 
z
M 35.203125 72.90625 
L 47.609375 72.90625 
L 47.609375 25.390625 
L 58.015625 25.390625 
L 58.015625 17.1875 
L 47.609375 17.1875 
L 47.609375 0 
L 37.796875 0 
L 37.796875 17.1875 
L 4.890625 17.1875 
L 4.890625 26.703125 
z
" id="DejaVuSans-34"/>
    </defs>
    <g transform="translate(236.975715 295.488)scale(0.1 -0.1)">
     <use transform="translate(0 0.015625)" xlink:href="#DejaVuSans-Oblique-6b"/>
     <use transform="translate(57.910156 -16.390625)scale(0.7)" xlink:href="#DejaVuSans-34"/>
    </g>
   </g>
   <g id="text_25">
    <!-- $k_5$ -->
    <defs>
     <path d="M 10.796875 72.90625 
L 49.515625 72.90625 
L 49.515625 64.59375 
L 19.828125 64.59375 
L 19.828125 46.734375 
Q 21.96875 47.46875 24.109375 47.828125 
Q 26.265625 48.1875 28.421875 48.1875 
Q 40.625 48.1875 47.75 41.5 
Q 54.890625 34.8125 54.890625 23.390625 
Q 54.890625 11.625 47.5625 5.09375 
Q 40.234375 -1.421875 26.90625 -1.421875 
Q 22.3125 -1.421875 17.546875 -0.640625 
Q 12.796875 0.140625 7.71875 1.703125 
L 7.71875 11.625 
Q 12.109375 9.234375 16.796875 8.0625 
Q 21.484375 6.890625 26.703125 6.890625 
Q 35.15625 6.890625 40.078125 11.328125 
Q 45.015625 15.765625 45.015625 23.390625 
Q 45.015625 31 40.078125 35.4375 
Q 35.15625 39.890625 26.703125 39.890625 
Q 22.75 39.890625 18.8125 39.015625 
Q 14.890625 38.140625 10.796875 36.28125 
z
" id="DejaVuSans-35"/>
    </defs>
    <g transform="translate(269.604312 295.488)scale(0.1 -0.1)">
     <use transform="translate(0 0.015625)" xlink:href="#DejaVuSans-Oblique-6b"/>
     <use transform="translate(57.910156 -16.390625)scale(0.7)" xlink:href="#DejaVuSans-35"/>
    </g>
   </g>
   <g id="text_26">
    <!-- $k_6$ -->
    <defs>
     <path d="M 33.015625 40.375 
Q 26.375 40.375 22.484375 35.828125 
Q 18.609375 31.296875 18.609375 23.390625 
Q 18.609375 15.53125 22.484375 10.953125 
Q 26.375 6.390625 33.015625 6.390625 
Q 39.65625 6.390625 43.53125 10.953125 
Q 47.40625 15.53125 47.40625 23.390625 
Q 47.40625 31.296875 43.53125 35.828125 
Q 39.65625 40.375 33.015625 40.375 
z
M 52.59375 71.296875 
L 52.59375 62.3125 
Q 48.875 64.0625 45.09375 64.984375 
Q 41.3125 65.921875 37.59375 65.921875 
Q 27.828125 65.921875 22.671875 59.328125 
Q 17.53125 52.734375 16.796875 39.40625 
Q 19.671875 43.65625 24.015625 45.921875 
Q 28.375 48.1875 33.59375 48.1875 
Q 44.578125 48.1875 50.953125 41.515625 
Q 57.328125 34.859375 57.328125 23.390625 
Q 57.328125 12.15625 50.6875 5.359375 
Q 44.046875 -1.421875 33.015625 -1.421875 
Q 20.359375 -1.421875 13.671875 8.265625 
Q 6.984375 17.96875 6.984375 36.375 
Q 6.984375 53.65625 15.1875 63.9375 
Q 23.390625 74.21875 37.203125 74.21875 
Q 40.921875 74.21875 44.703125 73.484375 
Q 48.484375 72.75 52.59375 71.296875 
z
" id="DejaVuSans-36"/>
    </defs>
    <g transform="translate(302.23291 295.488)scale(0.1 -0.1)">
     <use transform="translate(0 0.015625)" xlink:href="#DejaVuSans-Oblique-6b"/>
     <use transform="translate(57.910156 -16.390625)scale(0.7)" xlink:href="#DejaVuSans-36"/>
    </g>
   </g>
   <g id="text_27">
    <!-- $k_7$ -->
    <defs>
     <path d="M 8.203125 72.90625 
L 55.078125 72.90625 
L 55.078125 68.703125 
L 28.609375 0 
L 18.3125 0 
L 43.21875 64.59375 
L 8.203125 64.59375 
z
" id="DejaVuSans-37"/>
    </defs>
    <g transform="translate(334.861508 295.488)scale(0.1 -0.1)">
     <use transform="translate(0 0.015625)" xlink:href="#DejaVuSans-Oblique-6b"/>
     <use transform="translate(57.910156 -16.390625)scale(0.7)" xlink:href="#DejaVuSans-37"/>
    </g>
   </g>
   <g id="text_28">
    <!-- Weight: -->
    <defs>
     <path d="M 100.484375 75.640625 
L 79.296875 0 
L 67.921875 0 
L 52.6875 54.5 
Q 51.65625 58.203125 51.46875 62.3125 
L 51.265625 62.3125 
Q 50.984375 58.25 49.90625 54.59375 
L 34.515625 0 
L 23.25 0 
L 1.3125 75.640625 
L 12.109375 75.640625 
L 27.546875 18.5 
Q 28.5625 14.65625 28.765625 10.75 
L 29.046875 10.75 
Q 29.296875 13.671875 30.671875 18.5 
L 47.015625 75.640625 
L 56.640625 75.640625 
L 72.265625 18.0625 
Q 73.046875 15.234375 73.53125 10.84375 
L 73.734375 10.84375 
Q 73.96875 14.015625 75.140625 18.265625 
L 89.984375 75.640625 
z
" id="MicrosoftYaHei-57"/>
     <path d="M 52.546875 24.5625 
L 14.75 24.5625 
Q 14.984375 15.921875 19.46875 11.203125 
Q 23.96875 6.5 32.03125 6.5 
Q 41.109375 6.5 48.6875 12.3125 
L 48.6875 3.765625 
Q 41.546875 -1.265625 29.78125 -1.265625 
Q 18.0625 -1.265625 11.5 6.15625 
Q 4.9375 13.578125 4.9375 26.765625 
Q 4.9375 39.15625 12.140625 47.21875 
Q 19.34375 55.28125 30.03125 55.28125 
Q 40.625 55.28125 46.578125 48.46875 
Q 52.546875 41.65625 52.546875 29.390625 
z
M 42.96875 32.234375 
Q 42.921875 39.546875 39.5 43.546875 
Q 36.078125 47.5625 29.890625 47.5625 
Q 24.171875 47.5625 20 43.3125 
Q 15.828125 39.0625 14.75 32.234375 
z
" id="MicrosoftYaHei-65"/>
     <path d="M 7.375 73.046875 
Q 7.375 75.59375 9.109375 77.3125 
Q 10.84375 79.046875 13.375 79.046875 
Q 15.96875 79.046875 17.75 77.34375 
Q 19.53125 75.640625 19.53125 73.046875 
Q 19.53125 70.515625 17.75 68.828125 
Q 15.96875 67.140625 13.375 67.140625 
Q 10.796875 67.140625 9.078125 68.828125 
Q 7.375 70.515625 7.375 73.046875 
z
M 8.5 0 
L 8.5 54 
L 18.0625 54 
L 18.0625 0 
z
" id="MicrosoftYaHei-69"/>
     <path d="M 55.421875 4.546875 
Q 55.421875 -25.4375 26.3125 -25.4375 
Q 16.265625 -25.4375 8.84375 -21.6875 
L 8.84375 -12.453125 
Q 17.875 -17.484375 26.171875 -17.484375 
Q 45.84375 -17.484375 45.84375 3.21875 
L 45.84375 8.9375 
L 45.65625 8.9375 
Q 39.5 -1.265625 27.296875 -1.265625 
Q 17.140625 -1.265625 11.03125 6 
Q 4.9375 13.28125 4.9375 25.296875 
Q 4.9375 39.109375 11.671875 47.1875 
Q 18.40625 55.28125 29.640625 55.28125 
Q 40.4375 55.28125 45.65625 46.6875 
L 45.84375 46.6875 
L 45.84375 54 
L 55.421875 54 
z
M 45.84375 32.125 
Q 45.90625 38.375 41.65625 42.859375 
Q 37.40625 47.359375 31.203125 47.359375 
Q 23.390625 47.359375 19.046875 41.625 
Q 14.703125 35.890625 14.703125 25.875 
Q 14.703125 17.28125 18.890625 11.953125 
Q 23.09375 6.640625 30.03125 6.640625 
Q 37.015625 6.640625 41.453125 11.71875 
Q 45.90625 16.796875 45.84375 24.609375 
z
" id="MicrosoftYaHei-67"/>
     <path d="M 54.15625 0 
L 44.625 0 
L 44.625 31.0625 
Q 44.625 47.359375 32.515625 47.359375 
Q 26.3125 47.359375 22.203125 42.59375 
Q 18.109375 37.84375 18.109375 30.609375 
L 18.109375 0 
L 8.546875 0 
L 8.546875 79.9375 
L 18.109375 79.9375 
L 18.109375 45.125 
L 18.3125 45.125 
Q 24.515625 55.28125 35.9375 55.28125 
Q 54.15625 55.28125 54.15625 33.25 
z
" id="MicrosoftYaHei-68"/>
     <path d="M 5.8125 48.96875 
Q 5.8125 51.609375 7.65625 53.359375 
Q 9.515625 55.125 12.109375 55.125 
Q 14.75 55.125 16.59375 53.34375 
Q 18.453125 51.5625 18.453125 48.96875 
Q 18.453125 46.390625 16.640625 44.578125 
Q 14.84375 42.78125 12.0625 42.78125 
Q 9.421875 42.78125 7.609375 44.578125 
Q 5.8125 46.390625 5.8125 48.96875 
z
M 5.8125 5.03125 
Q 5.8125 7.671875 7.609375 9.46875 
Q 9.421875 11.28125 12.109375 11.28125 
Q 14.84375 11.28125 16.640625 9.453125 
Q 18.453125 7.625 18.453125 5.03125 
Q 18.453125 2.484375 16.640625 0.65625 
Q 14.84375 -1.171875 12.0625 -1.171875 
Q 9.375 -1.171875 7.59375 0.65625 
Q 5.8125 2.484375 5.8125 5.03125 
z
" id="MicrosoftYaHei-3a"/>
    </defs>
    <g transform="translate(90.147026 153.182118)scale(0.1 -0.1)">
     <use xlink:href="#MicrosoftYaHei-57"/>
     <use x="101.726562" xlink:href="#MicrosoftYaHei-65"/>
     <use x="158.464844" xlink:href="#MicrosoftYaHei-69"/>
     <use x="185.076172" xlink:href="#MicrosoftYaHei-67"/>
     <use x="249.041016" xlink:href="#MicrosoftYaHei-68"/>
     <use x="310.613281" xlink:href="#MicrosoftYaHei-74"/>
     <use x="347.869141" xlink:href="#MicrosoftYaHei-3a"/>
    </g>
   </g>
   <g id="legend_1">
    <g id="patch_7">
     <path d="M 344.32 157.900125 
L 407.72 157.900125 
Q 409.72 157.900125 409.72 155.900125 
L 409.72 48.472 
Q 409.72 46.472 407.72 46.472 
L 344.32 46.472 
Q 342.32 46.472 342.32 48.472 
L 342.32 155.900125 
Q 342.32 157.900125 344.32 157.900125 
z
" style="fill:#ffffff;opacity:0.8;stroke:#cccccc;stroke-linejoin:miter;"/>
    </g>
    <g id="line2d_38">
     <path d="M 346.32 54.96575 
L 366.32 54.96575 
" style="fill:none;stroke:#1f77b4;stroke-linecap:square;stroke-width:1.5;"/>
    </g>
    <g id="line2d_39"/>
    <g id="text_29">
     <!-- $B_{0,2}(t)$ -->
     <defs>
      <path d="M 16.890625 72.90625 
L 42.09375 72.90625 
Q 52.34375 72.90625 57.421875 69.09375 
Q 62.5 65.28125 62.5 57.625 
Q 62.5 50.59375 58.125 45.484375 
Q 53.765625 40.375 46.6875 39.3125 
Q 52.734375 37.9375 55.765625 34.078125 
Q 58.796875 30.21875 58.796875 23.78125 
Q 58.796875 12.796875 50.65625 6.390625 
Q 42.53125 0 28.421875 0 
L 2.6875 0 
z
M 19.28125 34.8125 
L 14.109375 8.109375 
L 29.984375 8.109375 
Q 38.921875 8.109375 43.75 12.203125 
Q 48.578125 16.3125 48.578125 23.78125 
Q 48.578125 29.546875 45.375 32.171875 
Q 42.1875 34.8125 35.109375 34.8125 
z
M 25.09375 64.796875 
L 20.796875 42.828125 
L 35.5 42.828125 
Q 43.359375 42.828125 47.78125 46.234375 
Q 52.203125 49.65625 52.203125 55.71875 
Q 52.203125 60.453125 49.21875 62.625 
Q 46.234375 64.796875 39.703125 64.796875 
z
" id="DejaVuSans-Oblique-42"/>
      <path d="M 11.71875 12.40625 
L 22.015625 12.40625 
L 22.015625 4 
L 14.015625 -11.625 
L 7.71875 -11.625 
L 11.71875 4 
z
" id="DejaVuSans-2c"/>
     </defs>
     <g transform="translate(374.32 58.46575)scale(0.1 -0.1)">
      <use transform="translate(0 0.125)" xlink:href="#DejaVuSans-Oblique-42"/>
      <use transform="translate(68.603516 -16.28125)scale(0.7)" xlink:href="#DejaVuSans-30"/>
      <use transform="translate(113.139648 -16.28125)scale(0.7)" xlink:href="#DejaVuSans-2c"/>
      <use transform="translate(149.02832 -16.28125)scale(0.7)" xlink:href="#DejaVuSans-32"/>
      <use transform="translate(196.298828 0.125)" xlink:href="#DejaVuSans-28"/>
      <use transform="translate(235.3125 0.125)" xlink:href="#DejaVuSans-Oblique-74"/>
      <use transform="translate(274.521484 0.125)" xlink:href="#DejaVuSans-29"/>
     </g>
    </g>
    <g id="line2d_40">
     <path d="M 346.32 70.4595 
L 366.32 70.4595 
" style="fill:none;stroke:#ff7f0e;stroke-linecap:square;stroke-width:1.5;"/>
    </g>
    <g id="line2d_41"/>
    <g id="text_30">
     <!-- $B_{1,2}(t)$ -->
     <g transform="translate(374.32 73.9595)scale(0.1 -0.1)">
      <use transform="translate(0 0.125)" xlink:href="#DejaVuSans-Oblique-42"/>
      <use transform="translate(68.603516 -16.28125)scale(0.7)" xlink:href="#DejaVuSans-31"/>
      <use transform="translate(113.139648 -16.28125)scale(0.7)" xlink:href="#DejaVuSans-2c"/>
      <use transform="translate(149.02832 -16.28125)scale(0.7)" xlink:href="#DejaVuSans-32"/>
      <use transform="translate(196.298828 0.125)" xlink:href="#DejaVuSans-28"/>
      <use transform="translate(235.3125 0.125)" xlink:href="#DejaVuSans-Oblique-74"/>
      <use transform="translate(274.521484 0.125)" xlink:href="#DejaVuSans-29"/>
     </g>
    </g>
    <g id="line2d_42">
     <path d="M 346.32 85.95325 
L 366.32 85.95325 
" style="fill:none;stroke:#2ca02c;stroke-linecap:square;stroke-width:1.5;"/>
    </g>
    <g id="line2d_43"/>
    <g id="text_31">
     <!-- $B_{2,2}(t)$ -->
     <g transform="translate(374.32 89.45325)scale(0.1 -0.1)">
      <use transform="translate(0 0.125)" xlink:href="#DejaVuSans-Oblique-42"/>
      <use transform="translate(68.603516 -16.28125)scale(0.7)" xlink:href="#DejaVuSans-32"/>
      <use transform="translate(113.139648 -16.28125)scale(0.7)" xlink:href="#DejaVuSans-2c"/>
      <use transform="translate(149.02832 -16.28125)scale(0.7)" xlink:href="#DejaVuSans-32"/>
      <use transform="translate(196.298828 0.125)" xlink:href="#DejaVuSans-28"/>
      <use transform="translate(235.3125 0.125)" xlink:href="#DejaVuSans-Oblique-74"/>
      <use transform="translate(274.521484 0.125)" xlink:href="#DejaVuSans-29"/>
     </g>
    </g>
    <g id="line2d_44">
     <path d="M 346.32 101.447 
L 366.32 101.447 
" style="fill:none;stroke:#d62728;stroke-linecap:square;stroke-width:1.5;"/>
    </g>
    <g id="line2d_45"/>
    <g id="text_32">
     <!-- $B_{3,2}(t)$ -->
     <g transform="translate(374.32 104.947)scale(0.1 -0.1)">
      <use transform="translate(0 0.125)" xlink:href="#DejaVuSans-Oblique-42"/>
      <use transform="translate(68.603516 -16.28125)scale(0.7)" xlink:href="#DejaVuSans-33"/>
      <use transform="translate(113.139648 -16.28125)scale(0.7)" xlink:href="#DejaVuSans-2c"/>
      <use transform="translate(149.02832 -16.28125)scale(0.7)" xlink:href="#DejaVuSans-32"/>
      <use transform="translate(196.298828 0.125)" xlink:href="#DejaVuSans-28"/>
      <use transform="translate(235.3125 0.125)" xlink:href="#DejaVuSans-Oblique-74"/>
      <use transform="translate(274.521484 0.125)" xlink:href="#DejaVuSans-29"/>
     </g>
    </g>
    <g id="line2d_46">
     <path d="M 346.32 116.94075 
L 366.32 116.94075 
" style="fill:none;stroke:#9467bd;stroke-linecap:square;stroke-width:1.5;"/>
    </g>
    <g id="line2d_47"/>
    <g id="text_33">
     <!-- $B_{4,2}(t)$ -->
     <g transform="translate(374.32 120.44075)scale(0.1 -0.1)">
      <use transform="translate(0 0.125)" xlink:href="#DejaVuSans-Oblique-42"/>
      <use transform="translate(68.603516 -16.28125)scale(0.7)" xlink:href="#DejaVuSans-34"/>
      <use transform="translate(113.139648 -16.28125)scale(0.7)" xlink:href="#DejaVuSans-2c"/>
      <use transform="translate(149.02832 -16.28125)scale(0.7)" xlink:href="#DejaVuSans-32"/>
      <use transform="translate(196.298828 0.125)" xlink:href="#DejaVuSans-28"/>
      <use transform="translate(235.3125 0.125)" xlink:href="#DejaVuSans-Oblique-74"/>
      <use transform="translate(274.521484 0.125)" xlink:href="#DejaVuSans-29"/>
     </g>
    </g>
    <g id="line2d_48">
     <path d="M 346.32 132.4345 
L 366.32 132.4345 
" style="fill:none;stroke:#8c564b;stroke-linecap:square;stroke-width:1.5;"/>
    </g>
    <g id="line2d_49"/>
    <g id="text_34">
     <!-- $S_2(t)$ -->
     <g transform="translate(374.32 135.9345)scale(0.1 -0.1)">
      <use transform="translate(0 0.125)" xlink:href="#DejaVuSans-Oblique-53"/>
      <use transform="translate(63.476562 -16.28125)scale(0.7)" xlink:href="#DejaVuSans-32"/>
      <use transform="translate(110.74707 0.125)" xlink:href="#DejaVuSans-28"/>
      <use transform="translate(149.760742 0.125)" xlink:href="#DejaVuSans-Oblique-74"/>
      <use transform="translate(188.969727 0.125)" xlink:href="#DejaVuSans-29"/>
     </g>
    </g>
    <g id="line2d_50"/>
    <g id="line2d_51">
     <g>
      <use style="fill:#008000;stroke:#008000;stroke-width:3;" x="356.32" xlink:href="#m11fb1fab45" y="147.914188"/>
     </g>
    </g>
    <g id="text_35">
     <!-- knots -->
     <defs>
      <path d="M 54.4375 0 
L 41.40625 0 
L 18.3125 26.03125 
L 18.109375 26.03125 
L 18.109375 0 
L 8.546875 0 
L 8.546875 79.9375 
L 18.109375 79.9375 
L 18.109375 29.25 
L 18.3125 29.25 
L 40.234375 54 
L 52.546875 54 
L 28.125 28.03125 
z
" id="MicrosoftYaHei-6b"/>
      <path d="M 54.203125 0 
L 44.671875 0 
L 44.671875 30.71875 
Q 44.671875 47.359375 32.515625 47.359375 
Q 26.21875 47.359375 22.15625 42.671875 
Q 18.109375 37.984375 18.109375 30.8125 
L 18.109375 0 
L 8.546875 0 
L 8.546875 54 
L 18.109375 54 
L 18.109375 45.0625 
L 18.3125 45.0625 
Q 24.421875 55.28125 36.03125 55.28125 
Q 44.921875 55.28125 49.5625 49.578125 
Q 54.203125 43.890625 54.203125 33.015625 
z
" id="MicrosoftYaHei-6e"/>
      <path d="M 4.9375 26.421875 
Q 4.9375 39.796875 12.40625 47.53125 
Q 19.875 55.28125 32.671875 55.28125 
Q 44.828125 55.28125 51.734375 47.828125 
Q 58.640625 40.375 58.640625 27.25 
Q 58.640625 14.453125 51.265625 6.59375 
Q 43.890625 -1.265625 31.5 -1.265625 
Q 19.390625 -1.265625 12.15625 6.34375 
Q 4.9375 13.96875 4.9375 26.421875 
z
M 14.703125 26.703125 
Q 14.703125 17.390625 19.40625 12.015625 
Q 24.125 6.640625 32.078125 6.640625 
Q 40.28125 6.640625 44.578125 11.890625 
Q 48.875 17.140625 48.875 26.953125 
Q 48.875 36.8125 44.578125 42.078125 
Q 40.28125 47.359375 32.078125 47.359375 
Q 24.03125 47.359375 19.359375 41.84375 
Q 14.703125 36.328125 14.703125 26.703125 
z
" id="MicrosoftYaHei-6f"/>
      <path d="M 5.515625 11.671875 
Q 12.75 6.453125 21.09375 6.453125 
Q 32.28125 6.453125 32.28125 13.765625 
Q 32.28125 16.890625 29.828125 18.921875 
Q 27.390625 20.953125 19.921875 23.734375 
Q 10.9375 27.34375 8.25 30.875 
Q 5.5625 34.421875 5.5625 39.453125 
Q 5.5625 46.625 11.640625 50.953125 
Q 17.71875 55.28125 26.609375 55.28125 
Q 33.5 55.28125 39.40625 52.875 
L 39.40625 43.65625 
Q 33.34375 47.5625 25.6875 47.5625 
Q 21.09375 47.5625 18.203125 45.5625 
Q 15.328125 43.5625 15.328125 40.28125 
Q 15.328125 37.0625 17.40625 35.25 
Q 19.484375 33.453125 26.609375 30.609375 
Q 35.640625 27.25 38.8125 23.625 
Q 42 20.015625 42 14.703125 
Q 42 7.28125 35.90625 3 
Q 29.828125 -1.265625 20.171875 -1.265625 
Q 11.765625 -1.265625 5.515625 1.90625 
z
" id="MicrosoftYaHei-73"/>
     </defs>
     <g transform="translate(374.32 151.414188)scale(0.1 -0.1)">
      <use xlink:href="#MicrosoftYaHei-6b"/>
      <use x="54.443359" xlink:href="#MicrosoftYaHei-6e"/>
      <use x="116.064453" xlink:href="#MicrosoftYaHei-6f"/>
      <use x="179.638672" xlink:href="#MicrosoftYaHei-74"/>
      <use x="216.894531" xlink:href="#MicrosoftYaHei-73"/>
     </g>
    </g>
   </g>
  </g>
 </g>
 <defs>
  <clipPath id="pf61961184f">
   <rect height="266.112" width="357.12" x="57.6" y="41.472"/>
  </clipPath>
 </defs>
</svg>
