<?xml version="1.0" encoding="utf-8" standalone="no"?>
<!DOCTYPE svg PUBLIC "-//W3C//DTD SVG 1.1//EN"
  "http://www.w3.org/Graphics/SVG/1.1/DTD/svg11.dtd">
<!-- Created with matplotlib (http://matplotlib.org/) -->
<svg height="360pt" version="1.1" viewBox="0 0 720 360" width="720pt" xmlns="http://www.w3.org/2000/svg" xmlns:xlink="http://www.w3.org/1999/xlink">
 <defs>
  <style type="text/css">
*{stroke-linecap:butt;stroke-linejoin:round;}
  </style>
 </defs>
 <g id="figure_1">
  <g id="patch_1">
   <path d="M 0 360 
L 720 360 
L 720 0 
L 0 0 
z
" style="fill:#ffffff;"/>
  </g>
  <g id="axes_1">
   <g id="patch_2">
    <path d="M 90 320.4 
L 648 320.4 
L 648 43.2 
L 90 43.2 
z
" style="fill:#ffffff;"/>
   </g>
   <g id="matplotlib.axis_1">
    <g id="xtick_1">
     <g id="line2d_1">
      <path clip-path="url(#pbe0e426867)" d="M 115.363636 320.4 
L 115.363636 43.2 
" style="fill:none;stroke:#b0b0b0;stroke-linecap:square;stroke-width:0.8;"/>
     </g>
     <g id="line2d_2">
      <defs>
       <path d="M 0 0 
L 0 3.5 
" id="ma6a4c5c11c" style="stroke:#000000;stroke-width:0.8;"/>
      </defs>
      <g>
       <use style="stroke:#000000;stroke-width:0.8;" x="115.363636" xlink:href="#ma6a4c5c11c" y="320.4"/>
      </g>
     </g>
     <g id="text_1">
      <!-- −2 -->
      <defs>
       <path d="M 62.0625 27.6875 
L 12.3125 27.6875 
L 12.3125 35.15625 
L 62.0625 35.15625 
z
" id="MicrosoftYaHei-2212"/>
       <path d="M 51.171875 0 
L 5.171875 0 
L 5.171875 8.296875 
L 27.15625 30.21875 
Q 36.234375 39.3125 39.3125 44.609375 
Q 42.390625 49.90625 42.390625 55.5625 
Q 42.390625 62.015625 38.765625 65.453125 
Q 35.15625 68.890625 28.328125 68.890625 
Q 18.21875 68.890625 9.03125 60.296875 
L 9.03125 70.015625 
Q 17.96875 76.90625 29.828125 76.90625 
Q 40.046875 76.90625 45.953125 71.390625 
Q 51.859375 65.875 51.859375 56.546875 
Q 51.859375 49.515625 48.0625 42.75 
Q 44.28125 35.984375 33.734375 25.53125 
L 16.5 8.6875 
L 16.5 8.5 
L 51.171875 8.5 
z
" id="MicrosoftYaHei-32"/>
      </defs>
      <g transform="translate(108.723011 335.39375)scale(0.1 -0.1)">
       <use xlink:href="#MicrosoftYaHei-2212"/>
       <use x="74.169922" xlink:href="#MicrosoftYaHei-32"/>
      </g>
     </g>
    </g>
    <g id="xtick_2">
     <g id="line2d_3">
      <path clip-path="url(#pbe0e426867)" d="M 193.797765 320.4 
L 193.797765 43.2 
" style="fill:none;stroke:#b0b0b0;stroke-linecap:square;stroke-width:0.8;"/>
     </g>
     <g id="line2d_4">
      <g>
       <use style="stroke:#000000;stroke-width:0.8;" x="193.797765" xlink:href="#ma6a4c5c11c" y="320.4"/>
      </g>
     </g>
     <g id="text_2">
      <!-- 0 -->
      <defs>
       <path d="M 4.4375 36.328125 
Q 4.4375 56.34375 11.078125 66.625 
Q 17.71875 76.90625 30.328125 76.90625 
Q 54.34375 76.90625 54.34375 38.140625 
Q 54.34375 19 47.578125 8.859375 
Q 40.828125 -1.265625 28.609375 -1.265625 
Q 17.09375 -1.265625 10.765625 8.34375 
Q 4.4375 17.96875 4.4375 36.328125 
z
M 14.203125 36.765625 
Q 14.203125 6.640625 29.5 6.640625 
Q 44.53125 6.640625 44.53125 37.25 
Q 44.53125 68.953125 29.78125 68.953125 
Q 14.203125 68.953125 14.203125 36.765625 
z
" id="MicrosoftYaHei-30"/>
      </defs>
      <g transform="translate(190.865734 335.39375)scale(0.1 -0.1)">
       <use xlink:href="#MicrosoftYaHei-30"/>
      </g>
     </g>
    </g>
    <g id="xtick_3">
     <g id="line2d_5">
      <path clip-path="url(#pbe0e426867)" d="M 272.231894 320.4 
L 272.231894 43.2 
" style="fill:none;stroke:#b0b0b0;stroke-linecap:square;stroke-width:0.8;"/>
     </g>
     <g id="line2d_6">
      <g>
       <use style="stroke:#000000;stroke-width:0.8;" x="272.231894" xlink:href="#ma6a4c5c11c" y="320.4"/>
      </g>
     </g>
     <g id="text_3">
      <!-- 2 -->
      <g transform="translate(269.299862 335.39375)scale(0.1 -0.1)">
       <use xlink:href="#MicrosoftYaHei-32"/>
      </g>
     </g>
    </g>
    <g id="xtick_4">
     <g id="line2d_7">
      <path clip-path="url(#pbe0e426867)" d="M 350.666022 320.4 
L 350.666022 43.2 
" style="fill:none;stroke:#b0b0b0;stroke-linecap:square;stroke-width:0.8;"/>
     </g>
     <g id="line2d_8">
      <g>
       <use style="stroke:#000000;stroke-width:0.8;" x="350.666022" xlink:href="#ma6a4c5c11c" y="320.4"/>
      </g>
     </g>
     <g id="text_4">
      <!-- 4 -->
      <defs>
       <path d="M 55.078125 19.625 
L 45.40625 19.625 
L 45.40625 0 
L 36.140625 0 
L 36.140625 19.625 
L 0.875 19.625 
L 0.875 25.828125 
L 34.328125 75.640625 
L 45.40625 75.640625 
L 45.40625 27.203125 
L 55.078125 27.203125 
z
M 36.140625 27.203125 
L 36.140625 58.890625 
Q 36.140625 62.25 36.328125 66.65625 
L 36.140625 66.65625 
Q 35.453125 64.796875 33.25 60.84375 
L 10.75 27.203125 
z
" id="MicrosoftYaHei-34"/>
      </defs>
      <g transform="translate(347.733991 335.39375)scale(0.1 -0.1)">
       <use xlink:href="#MicrosoftYaHei-34"/>
      </g>
     </g>
    </g>
    <g id="xtick_5">
     <g id="line2d_9">
      <path clip-path="url(#pbe0e426867)" d="M 429.100151 320.4 
L 429.100151 43.2 
" style="fill:none;stroke:#b0b0b0;stroke-linecap:square;stroke-width:0.8;"/>
     </g>
     <g id="line2d_10">
      <g>
       <use style="stroke:#000000;stroke-width:0.8;" x="429.100151" xlink:href="#ma6a4c5c11c" y="320.4"/>
      </g>
     </g>
     <g id="text_5">
      <!-- 6 -->
      <defs>
       <path d="M 49.703125 65.921875 
Q 43.796875 68.953125 37.359375 68.953125 
Q 27.546875 68.953125 21.578125 60.40625 
Q 15.625 51.859375 15.53125 37.0625 
L 15.765625 37.0625 
Q 21.140625 47.46875 32.90625 47.46875 
Q 42.71875 47.46875 48.578125 41.0625 
Q 54.4375 34.671875 54.4375 24.078125 
Q 54.4375 12.984375 47.671875 5.859375 
Q 40.921875 -1.265625 30.421875 -1.265625 
Q 18.890625 -1.265625 12.328125 7.734375 
Q 5.765625 16.75 5.765625 33.296875 
Q 5.765625 53.328125 14.375 65.109375 
Q 23 76.90625 37.0625 76.90625 
Q 45.125 76.90625 49.703125 74.703125 
z
M 16.109375 24.75 
Q 16.109375 17.28125 20.09375 11.953125 
Q 24.078125 6.640625 30.671875 6.640625 
Q 36.921875 6.640625 40.828125 11.234375 
Q 44.734375 15.828125 44.734375 23.046875 
Q 44.734375 30.859375 41.046875 35.203125 
Q 37.359375 39.546875 30.5625 39.546875 
Q 24.125 39.546875 20.109375 35.15625 
Q 16.109375 30.765625 16.109375 24.75 
z
" id="MicrosoftYaHei-36"/>
      </defs>
      <g transform="translate(426.16812 335.39375)scale(0.1 -0.1)">
       <use xlink:href="#MicrosoftYaHei-36"/>
      </g>
     </g>
    </g>
    <g id="xtick_6">
     <g id="line2d_11">
      <path clip-path="url(#pbe0e426867)" d="M 507.53428 320.4 
L 507.53428 43.2 
" style="fill:none;stroke:#b0b0b0;stroke-linecap:square;stroke-width:0.8;"/>
     </g>
     <g id="line2d_12">
      <g>
       <use style="stroke:#000000;stroke-width:0.8;" x="507.53428" xlink:href="#ma6a4c5c11c" y="320.4"/>
      </g>
     </g>
     <g id="text_6">
      <!-- 8 -->
      <defs>
       <path d="M 21.390625 39.796875 
Q 7.859375 46.09375 7.859375 58.0625 
Q 7.859375 66.40625 14.203125 71.65625 
Q 20.5625 76.90625 30.421875 76.90625 
Q 39.453125 76.90625 45.3125 71.96875 
Q 51.171875 67.046875 51.171875 59.234375 
Q 51.171875 46.625 37.0625 39.84375 
L 37.0625 39.65625 
Q 53.609375 33.6875 53.609375 19.34375 
Q 53.609375 9.90625 46.796875 4.3125 
Q 39.984375 -1.265625 27.78125 -1.265625 
Q 17.78125 -1.265625 11.46875 4.25 
Q 5.171875 9.765625 5.171875 18.5625 
Q 5.171875 33.015625 21.390625 39.59375 
z
M 41.5 58.109375 
Q 41.5 63.1875 38.328125 66.109375 
Q 35.15625 69.046875 29.734375 69.046875 
Q 24.65625 69.046875 21.09375 65.984375 
Q 17.53125 62.9375 17.53125 58.203125 
Q 17.53125 48.734375 29.390625 43.796875 
Q 41.5 48.828125 41.5 58.109375 
z
M 28.8125 35.25 
Q 14.796875 29.59375 14.796875 19.046875 
Q 14.796875 13.578125 18.890625 10.0625 
Q 23 6.546875 29.59375 6.546875 
Q 35.984375 6.546875 39.984375 10.03125 
Q 44 13.53125 44 18.75 
Q 44 29.734375 28.8125 35.25 
z
" id="MicrosoftYaHei-38"/>
      </defs>
      <g transform="translate(504.602249 335.39375)scale(0.1 -0.1)">
       <use xlink:href="#MicrosoftYaHei-38"/>
      </g>
     </g>
    </g>
    <g id="xtick_7">
     <g id="line2d_13">
      <path clip-path="url(#pbe0e426867)" d="M 585.968408 320.4 
L 585.968408 43.2 
" style="fill:none;stroke:#b0b0b0;stroke-linecap:square;stroke-width:0.8;"/>
     </g>
     <g id="line2d_14">
      <g>
       <use style="stroke:#000000;stroke-width:0.8;" x="585.968408" xlink:href="#ma6a4c5c11c" y="320.4"/>
      </g>
     </g>
     <g id="text_7">
      <!-- 10 -->
      <defs>
       <path d="M 52.59375 0 
L 9.234375 0 
L 9.234375 8.25 
L 26.171875 8.25 
L 26.171875 65.671875 
L 8.796875 60.640625 
L 8.796875 69.4375 
L 35.6875 77.25 
L 35.6875 8.25 
L 52.59375 8.25 
z
" id="MicrosoftYaHei-31"/>
      </defs>
      <g transform="translate(580.104346 335.39375)scale(0.1 -0.1)">
       <use xlink:href="#MicrosoftYaHei-31"/>
       <use x="58.642578" xlink:href="#MicrosoftYaHei-30"/>
      </g>
     </g>
    </g>
    <g id="text_8">
     <!-- t -->
     <defs>
      <path d="M 34.46875 0.53125 
Q 31.34375 -1.171875 26.03125 -1.171875 
Q 11.53125 -1.171875 11.53125 14.890625 
L 11.53125 46.09375 
L 2.25 46.09375 
L 2.25 54 
L 11.53125 54 
L 11.53125 67 
L 21.046875 70.015625 
L 21.046875 54 
L 34.46875 54 
L 34.46875 46.09375 
L 21.046875 46.09375 
L 21.046875 16.609375 
Q 21.046875 11.28125 22.84375 8.984375 
Q 24.65625 6.6875 28.859375 6.6875 
Q 32.078125 6.6875 34.46875 8.5 
z
" id="MicrosoftYaHei-74"/>
     </defs>
     <g transform="translate(367.1375 349.873438)scale(0.1 -0.1)">
      <use xlink:href="#MicrosoftYaHei-74"/>
     </g>
    </g>
   </g>
   <g id="matplotlib.axis_2">
    <g id="ytick_1">
     <g id="line2d_15">
      <path clip-path="url(#pbe0e426867)" d="M 90 284.890909 
L 648 284.890909 
" style="fill:none;stroke:#b0b0b0;stroke-linecap:square;stroke-width:0.8;"/>
     </g>
     <g id="line2d_16">
      <defs>
       <path d="M 0 0 
L -3.5 0 
" id="mec03ffa148" style="stroke:#000000;stroke-width:0.8;"/>
      </defs>
      <g>
       <use style="stroke:#000000;stroke-width:0.8;" x="90" xlink:href="#mec03ffa148" y="284.890909"/>
      </g>
     </g>
     <g id="text_9">
      <!-- 0.0 -->
      <defs>
       <path d="M 5.8125 5.03125 
Q 5.8125 7.671875 7.609375 9.46875 
Q 9.421875 11.28125 12.109375 11.28125 
Q 14.84375 11.28125 16.640625 9.453125 
Q 18.453125 7.625 18.453125 5.03125 
Q 18.453125 2.484375 16.640625 0.65625 
Q 14.84375 -1.171875 12.0625 -1.171875 
Q 9.375 -1.171875 7.59375 0.65625 
Q 5.8125 2.484375 5.8125 5.03125 
z
" id="MicrosoftYaHei-2e"/>
      </defs>
      <g transform="translate(68.864063 288.887784)scale(0.1 -0.1)">
       <use xlink:href="#MicrosoftYaHei-30"/>
       <use x="58.642578" xlink:href="#MicrosoftYaHei-2e"/>
       <use x="82.714844" xlink:href="#MicrosoftYaHei-30"/>
      </g>
     </g>
    </g>
    <g id="ytick_2">
     <g id="line2d_17">
      <path clip-path="url(#pbe0e426867)" d="M 90 239.072727 
L 648 239.072727 
" style="fill:none;stroke:#b0b0b0;stroke-linecap:square;stroke-width:0.8;"/>
     </g>
     <g id="line2d_18">
      <g>
       <use style="stroke:#000000;stroke-width:0.8;" x="90" xlink:href="#mec03ffa148" y="239.072727"/>
      </g>
     </g>
     <g id="text_10">
      <!-- 0.2 -->
      <g transform="translate(68.864063 243.069602)scale(0.1 -0.1)">
       <use xlink:href="#MicrosoftYaHei-30"/>
       <use x="58.642578" xlink:href="#MicrosoftYaHei-2e"/>
       <use x="82.714844" xlink:href="#MicrosoftYaHei-32"/>
      </g>
     </g>
    </g>
    <g id="ytick_3">
     <g id="line2d_19">
      <path clip-path="url(#pbe0e426867)" d="M 90 193.254545 
L 648 193.254545 
" style="fill:none;stroke:#b0b0b0;stroke-linecap:square;stroke-width:0.8;"/>
     </g>
     <g id="line2d_20">
      <g>
       <use style="stroke:#000000;stroke-width:0.8;" x="90" xlink:href="#mec03ffa148" y="193.254545"/>
      </g>
     </g>
     <g id="text_11">
      <!-- 0.4 -->
      <g transform="translate(68.864063 197.25142)scale(0.1 -0.1)">
       <use xlink:href="#MicrosoftYaHei-30"/>
       <use x="58.642578" xlink:href="#MicrosoftYaHei-2e"/>
       <use x="82.714844" xlink:href="#MicrosoftYaHei-34"/>
      </g>
     </g>
    </g>
    <g id="ytick_4">
     <g id="line2d_21">
      <path clip-path="url(#pbe0e426867)" d="M 90 147.436364 
L 648 147.436364 
" style="fill:none;stroke:#b0b0b0;stroke-linecap:square;stroke-width:0.8;"/>
     </g>
     <g id="line2d_22">
      <g>
       <use style="stroke:#000000;stroke-width:0.8;" x="90" xlink:href="#mec03ffa148" y="147.436364"/>
      </g>
     </g>
     <g id="text_12">
      <!-- 0.6 -->
      <g transform="translate(68.864063 151.433239)scale(0.1 -0.1)">
       <use xlink:href="#MicrosoftYaHei-30"/>
       <use x="58.642578" xlink:href="#MicrosoftYaHei-2e"/>
       <use x="82.714844" xlink:href="#MicrosoftYaHei-36"/>
      </g>
     </g>
    </g>
    <g id="ytick_5">
     <g id="line2d_23">
      <path clip-path="url(#pbe0e426867)" d="M 90 101.618182 
L 648 101.618182 
" style="fill:none;stroke:#b0b0b0;stroke-linecap:square;stroke-width:0.8;"/>
     </g>
     <g id="line2d_24">
      <g>
       <use style="stroke:#000000;stroke-width:0.8;" x="90" xlink:href="#mec03ffa148" y="101.618182"/>
      </g>
     </g>
     <g id="text_13">
      <!-- 0.8 -->
      <g transform="translate(68.864063 105.615057)scale(0.1 -0.1)">
       <use xlink:href="#MicrosoftYaHei-30"/>
       <use x="58.642578" xlink:href="#MicrosoftYaHei-2e"/>
       <use x="82.714844" xlink:href="#MicrosoftYaHei-38"/>
      </g>
     </g>
    </g>
    <g id="ytick_6">
     <g id="line2d_25">
      <path clip-path="url(#pbe0e426867)" d="M 90 55.8 
L 648 55.8 
" style="fill:none;stroke:#b0b0b0;stroke-linecap:square;stroke-width:0.8;"/>
     </g>
     <g id="line2d_26">
      <g>
       <use style="stroke:#000000;stroke-width:0.8;" x="90" xlink:href="#mec03ffa148" y="55.8"/>
      </g>
     </g>
     <g id="text_14">
      <!-- 1.0 -->
      <g transform="translate(68.864063 59.796875)scale(0.1 -0.1)">
       <use xlink:href="#MicrosoftYaHei-31"/>
       <use x="58.642578" xlink:href="#MicrosoftYaHei-2e"/>
       <use x="82.714844" xlink:href="#MicrosoftYaHei-30"/>
      </g>
     </g>
    </g>
    <g id="text_15">
     <!-- $B(t)$ -->
     <defs>
      <path d="M 16.890625 72.90625 
L 42.09375 72.90625 
Q 52.34375 72.90625 57.421875 69.09375 
Q 62.5 65.28125 62.5 57.625 
Q 62.5 50.59375 58.125 45.484375 
Q 53.765625 40.375 46.6875 39.3125 
Q 52.734375 37.9375 55.765625 34.078125 
Q 58.796875 30.21875 58.796875 23.78125 
Q 58.796875 12.796875 50.65625 6.390625 
Q 42.53125 0 28.421875 0 
L 2.6875 0 
z
M 19.28125 34.8125 
L 14.109375 8.109375 
L 29.984375 8.109375 
Q 38.921875 8.109375 43.75 12.203125 
Q 48.578125 16.3125 48.578125 23.78125 
Q 48.578125 29.546875 45.375 32.171875 
Q 42.1875 34.8125 35.109375 34.8125 
z
M 25.09375 64.796875 
L 20.796875 42.828125 
L 35.5 42.828125 
Q 43.359375 42.828125 47.78125 46.234375 
Q 52.203125 49.65625 52.203125 55.71875 
Q 52.203125 60.453125 49.21875 62.625 
Q 46.234375 64.796875 39.703125 64.796875 
z
" id="DejaVuSans-Oblique-42"/>
      <path d="M 31 75.875 
Q 24.46875 64.65625 21.28125 53.65625 
Q 18.109375 42.671875 18.109375 31.390625 
Q 18.109375 20.125 21.3125 9.0625 
Q 24.515625 -2 31 -13.1875 
L 23.1875 -13.1875 
Q 15.875 -1.703125 12.234375 9.375 
Q 8.59375 20.453125 8.59375 31.390625 
Q 8.59375 42.28125 12.203125 53.3125 
Q 15.828125 64.359375 23.1875 75.875 
z
" id="DejaVuSans-28"/>
      <path d="M 42.28125 54.6875 
L 40.921875 47.703125 
L 23 47.703125 
L 17.1875 18.015625 
Q 16.890625 16.359375 16.75 15.234375 
Q 16.609375 14.109375 16.609375 13.484375 
Q 16.609375 10.359375 18.484375 8.9375 
Q 20.359375 7.515625 24.515625 7.515625 
L 33.59375 7.515625 
L 32.078125 0 
L 23.484375 0 
Q 15.484375 0 11.546875 3.125 
Q 7.625 6.25 7.625 12.59375 
Q 7.625 13.71875 7.765625 15.0625 
Q 7.90625 16.40625 8.203125 18.015625 
L 14.015625 47.703125 
L 6.390625 47.703125 
L 7.8125 54.6875 
L 15.28125 54.6875 
L 18.3125 70.21875 
L 27.296875 70.21875 
L 24.3125 54.6875 
z
" id="DejaVuSans-Oblique-74"/>
      <path d="M 8.015625 75.875 
L 15.828125 75.875 
Q 23.140625 64.359375 26.78125 53.3125 
Q 30.421875 42.28125 30.421875 31.390625 
Q 30.421875 20.453125 26.78125 9.375 
Q 23.140625 -1.703125 15.828125 -13.1875 
L 8.015625 -13.1875 
Q 14.5 -2 17.703125 9.0625 
Q 20.90625 20.125 20.90625 31.390625 
Q 20.90625 42.671875 17.703125 53.65625 
Q 14.5 64.65625 8.015625 75.875 
z
" id="DejaVuSans-29"/>
     </defs>
     <g transform="translate(62.378125 191.1)rotate(-90)scale(0.1 -0.1)">
      <use transform="translate(0 0.125)" xlink:href="#DejaVuSans-Oblique-42"/>
      <use transform="translate(68.603516 0.125)" xlink:href="#DejaVuSans-28"/>
      <use transform="translate(107.617188 0.125)" xlink:href="#DejaVuSans-Oblique-74"/>
      <use transform="translate(146.826172 0.125)" xlink:href="#DejaVuSans-29"/>
     </g>
    </g>
   </g>
   <g id="line2d_27">
    <path clip-path="url(#pbe0e426867)" d="M 115.363636 284.890909 
L 191.836912 284.890909 
L 194.386021 55.8 
L 232.622659 55.8 
L 235.171768 284.890909 
L 622.636364 284.890909 
L 622.636364 284.890909 
" style="fill:none;stroke:#1f77b4;stroke-linecap:square;"/>
   </g>
   <g id="line2d_28">
    <path clip-path="url(#pbe0e426867)" d="M 115.363636 284.890909 
L 232.622659 284.890909 
L 235.171768 55.8 
L 270.859296 55.8 
L 273.408406 284.890909 
L 622.636364 284.890909 
L 622.636364 284.890909 
" style="fill:none;stroke:#1f77b4;stroke-linecap:square;"/>
   </g>
   <g id="line2d_29">
    <path clip-path="url(#pbe0e426867)" d="M 115.363636 284.890909 
L 270.859296 284.890909 
L 273.408406 55.8 
L 309.095934 55.8 
L 311.645043 284.890909 
L 622.636364 284.890909 
L 622.636364 284.890909 
" style="fill:none;stroke:#1f77b4;stroke-linecap:square;"/>
   </g>
   <g id="line2d_30">
    <path clip-path="url(#pbe0e426867)" d="M 115.363636 284.890909 
L 309.095934 284.890909 
L 311.645043 55.8 
L 349.881681 55.8 
L 352.43079 284.890909 
L 622.636364 284.890909 
L 622.636364 284.890909 
" style="fill:none;stroke:#1f77b4;stroke-linecap:square;"/>
   </g>
   <g id="line2d_31">
    <path clip-path="url(#pbe0e426867)" d="M 115.363636 284.890909 
L 349.881681 284.890909 
L 352.43079 55.8 
L 388.118319 55.8 
L 390.667428 284.890909 
L 622.636364 284.890909 
L 622.636364 284.890909 
" style="fill:none;stroke:#1f77b4;stroke-linecap:square;"/>
   </g>
   <g id="line2d_32">
    <path clip-path="url(#pbe0e426867)" d="M 115.363636 284.890909 
L 388.118319 284.890909 
L 390.667428 55.8 
L 428.904066 55.8 
L 431.453175 284.890909 
L 622.636364 284.890909 
L 622.636364 284.890909 
" style="fill:none;stroke:#1f77b4;stroke-linecap:square;"/>
   </g>
   <g id="line2d_33">
    <path clip-path="url(#pbe0e426867)" d="M 115.363636 284.890909 
L 428.904066 284.890909 
L 431.453175 55.8 
L 467.140704 55.8 
L 469.689813 284.890909 
L 622.636364 284.890909 
L 622.636364 284.890909 
" style="fill:none;stroke:#1f77b4;stroke-linecap:square;"/>
   </g>
   <g id="line2d_34">
    <path clip-path="url(#pbe0e426867)" d="M 115.363636 284.890909 
L 467.140704 284.890909 
L 469.689813 55.8 
L 505.377341 55.8 
L 507.92645 284.890909 
L 622.636364 284.890909 
L 622.636364 284.890909 
" style="fill:none;stroke:#1f77b4;stroke-linecap:square;"/>
   </g>
   <g id="line2d_35">
    <path clip-path="url(#pbe0e426867)" d="M 115.363636 284.890909 
L 505.377341 284.890909 
L 507.92645 55.8 
L 546.163088 55.8 
L 548.712197 284.890909 
L 622.636364 284.890909 
L 622.636364 284.890909 
" style="fill:none;stroke:#1f77b4;stroke-linecap:square;"/>
   </g>
   <g id="line2d_36">
    <path clip-path="url(#pbe0e426867)" d="M 115.363636 284.890909 
L 191.836912 284.890909 
L 194.386021 281.454545 
L 232.622659 58.090909 
L 235.171768 68.4 
L 270.859296 276.872727 
L 273.408406 284.890909 
L 622.636364 284.890909 
L 622.636364 284.890909 
" style="fill:none;stroke:#ff7f0e;stroke-linecap:square;stroke-width:1.5;"/>
   </g>
   <g id="line2d_37">
    <path clip-path="url(#pbe0e426867)" d="M 115.363636 284.890909 
L 232.622659 284.890909 
L 235.171768 272.290909 
L 270.859296 63.818182 
L 273.408406 62.672727 
L 309.095934 271.145455 
L 311.645043 284.890909 
L 622.636364 284.890909 
L 622.636364 284.890909 
" style="fill:none;stroke:#ff7f0e;stroke-linecap:square;stroke-width:1.5;"/>
   </g>
   <g id="line2d_38">
    <path clip-path="url(#pbe0e426867)" d="M 115.363636 284.890909 
L 270.859296 284.890909 
L 273.408406 278.018182 
L 309.095934 69.545455 
L 311.645043 56.945455 
L 349.881681 280.309091 
L 352.43079 284.890909 
L 622.636364 284.890909 
L 622.636364 284.890909 
" style="fill:none;stroke:#ff7f0e;stroke-linecap:square;stroke-width:1.5;"/>
   </g>
   <g id="line2d_39">
    <path clip-path="url(#pbe0e426867)" d="M 115.363636 284.890909 
L 309.095934 284.890909 
L 311.645043 283.745455 
L 349.881681 60.381818 
L 352.43079 66.109091 
L 388.118319 274.581818 
L 390.667428 284.890909 
L 622.636364 284.890909 
L 622.636364 284.890909 
" style="fill:none;stroke:#ff7f0e;stroke-linecap:square;stroke-width:1.5;"/>
   </g>
   <g id="line2d_40">
    <path clip-path="url(#pbe0e426867)" d="M 115.363636 284.890909 
L 349.881681 284.890909 
L 352.43079 274.581818 
L 388.118319 66.109091 
L 390.667428 60.381818 
L 428.904066 283.745455 
L 431.453175 284.890909 
L 622.636364 284.890909 
L 622.636364 284.890909 
" style="fill:none;stroke:#ff7f0e;stroke-linecap:square;stroke-width:1.5;"/>
   </g>
   <g id="line2d_41">
    <path clip-path="url(#pbe0e426867)" d="M 115.363636 284.890909 
L 388.118319 284.890909 
L 390.667428 280.309091 
L 428.904066 56.945455 
L 431.453175 69.545455 
L 467.140704 278.018182 
L 469.689813 284.890909 
L 622.636364 284.890909 
L 622.636364 284.890909 
" style="fill:none;stroke:#ff7f0e;stroke-linecap:square;stroke-width:1.5;"/>
   </g>
   <g id="line2d_42">
    <path clip-path="url(#pbe0e426867)" d="M 115.363636 284.890909 
L 428.904066 284.890909 
L 431.453175 271.145455 
L 467.140704 62.672727 
L 469.689813 63.818182 
L 505.377341 272.290909 
L 507.92645 284.890909 
L 622.636364 284.890909 
L 622.636364 284.890909 
" style="fill:none;stroke:#ff7f0e;stroke-linecap:square;stroke-width:1.5;"/>
   </g>
   <g id="line2d_43">
    <path clip-path="url(#pbe0e426867)" d="M 115.363636 284.890909 
L 467.140704 284.890909 
L 469.689813 276.872727 
L 505.377341 68.4 
L 507.92645 58.090909 
L 546.163088 281.454545 
L 548.712197 284.890909 
L 622.636364 284.890909 
L 622.636364 284.890909 
" style="fill:none;stroke:#ff7f0e;stroke-linecap:square;stroke-width:1.5;"/>
   </g>
   <g id="line2d_44">
    <path clip-path="url(#pbe0e426867)" d="M 115.363636 284.890909 
L 194.386021 284.865136 
L 196.93513 284.157818 
L 199.484239 282.482591 
L 202.033349 279.839455 
L 204.582458 276.228409 
L 207.131567 271.649455 
L 209.680676 266.102591 
L 212.229785 259.587818 
L 214.778894 252.105136 
L 217.328004 243.654545 
L 219.877113 234.236045 
L 222.426222 223.849636 
L 224.975331 212.495318 
L 227.52444 200.173091 
L 230.07355 186.882955 
L 235.171768 158.438455 
L 237.720877 146.153455 
L 240.269986 135.804273 
L 242.819095 127.390909 
L 245.368205 120.913364 
L 247.917314 116.371636 
L 250.466423 113.765727 
L 253.015532 113.095636 
L 255.564641 114.361364 
L 258.113751 117.562909 
L 260.66286 122.700273 
L 263.211969 129.773455 
L 265.761078 138.782455 
L 268.310187 149.727273 
L 270.859296 162.607909 
L 275.957515 191.075318 
L 278.506624 204.067636 
L 281.055733 216.092045 
L 283.604842 227.148545 
L 286.153952 237.237136 
L 288.703061 246.357818 
L 291.25217 254.510591 
L 293.801279 261.695455 
L 296.350388 267.912409 
L 298.899497 273.161455 
L 301.448607 277.442591 
L 303.997716 280.755818 
L 306.546825 283.101136 
L 309.095934 284.478545 
L 311.645043 284.890909 
L 622.636364 284.890909 
L 622.636364 284.890909 
" style="fill:none;stroke:#2ca02c;stroke-linecap:square;stroke-width:2;"/>
   </g>
   <g id="line2d_45">
    <path clip-path="url(#pbe0e426867)" d="M 115.363636 284.890909 
L 232.622659 284.890909 
L 235.171768 284.544409 
L 237.720877 283.241455 
L 240.269986 280.970591 
L 242.819095 277.731818 
L 245.368205 273.525136 
L 247.917314 268.350545 
L 250.466423 262.208045 
L 253.015532 255.097636 
L 255.564641 247.019318 
L 258.113751 237.973091 
L 260.66286 227.958955 
L 263.211969 216.976909 
L 265.761078 205.026955 
L 268.310187 192.109091 
L 270.859296 178.223318 
L 273.408406 163.678909 
L 275.957515 150.649364 
L 278.506624 139.555636 
L 281.055733 130.397727 
L 283.604842 123.175636 
L 286.153952 117.889364 
L 288.703061 114.538909 
L 291.25217 113.124273 
L 293.801279 113.645455 
L 296.350388 116.102455 
L 298.899497 120.495273 
L 301.448607 126.823909 
L 303.997716 135.088364 
L 306.546825 145.288636 
L 309.095934 157.424727 
L 316.743262 199.185136 
L 319.292371 211.581818 
L 321.84148 223.010591 
L 324.390589 233.471455 
L 326.939698 242.964409 
L 329.488808 251.489455 
L 332.037917 259.046591 
L 334.587026 265.635818 
L 337.136135 271.257136 
L 339.685244 275.910545 
L 342.234354 279.596045 
L 344.783463 282.313636 
L 347.332572 284.063318 
L 349.881681 284.845091 
L 357.529009 284.890909 
L 622.636364 284.890909 
L 622.636364 284.890909 
" style="fill:none;stroke:#2ca02c;stroke-linecap:square;stroke-width:2;"/>
   </g>
   <g id="line2d_46">
    <path clip-path="url(#pbe0e426867)" d="M 115.363636 284.890909 
L 273.408406 284.787818 
L 275.957515 283.857136 
L 278.506624 281.958545 
L 281.055733 279.092045 
L 283.604842 275.257636 
L 286.153952 270.455318 
L 288.703061 264.685091 
L 291.25217 257.946955 
L 293.801279 250.240909 
L 296.350388 241.566955 
L 298.899497 231.925091 
L 301.448607 221.315318 
L 303.997716 209.737636 
L 306.546825 197.192045 
L 309.095934 183.678545 
L 311.645043 169.205727 
L 314.194153 155.431636 
L 316.743262 143.593364 
L 319.292371 133.690909 
L 321.84148 125.724273 
L 324.390589 119.693455 
L 326.939698 115.598455 
L 329.488808 113.439273 
L 332.037917 113.215909 
L 334.587026 114.928364 
L 337.136135 118.576636 
L 339.685244 124.160727 
L 342.234354 131.680636 
L 344.783463 141.136364 
L 347.332572 152.527909 
L 349.881681 165.855273 
L 352.43079 180.422591 
L 354.979899 194.159455 
L 357.529009 206.928409 
L 360.078118 218.729455 
L 362.627227 229.562591 
L 365.176336 239.427818 
L 367.725445 248.325136 
L 370.274555 256.254545 
L 372.823664 263.216045 
L 375.372773 269.209636 
L 377.921882 274.235318 
L 380.470991 278.293091 
L 383.020101 281.382955 
L 385.56921 283.504909 
L 388.118319 284.658955 
L 390.667428 284.890909 
L 622.636364 284.890909 
L 622.636364 284.890909 
" style="fill:none;stroke:#2ca02c;stroke-linecap:square;stroke-width:2;"/>
   </g>
   <g id="line2d_47">
    <path clip-path="url(#pbe0e426867)" d="M 115.363636 284.890909 
L 311.645043 284.888045 
L 314.194153 284.329636 
L 316.743262 282.803318 
L 319.292371 280.309091 
L 321.84148 276.846955 
L 324.390589 272.416909 
L 326.939698 267.018955 
L 329.488808 260.653091 
L 332.037917 253.319318 
L 334.587026 245.017636 
L 337.136135 235.748045 
L 339.685244 225.510545 
L 342.234354 214.305136 
L 344.783463 202.131818 
L 347.332572 188.990591 
L 352.43079 160.500273 
L 354.979899 147.917455 
L 357.529009 137.270455 
L 360.078118 128.559273 
L 362.627227 121.783909 
L 365.176336 116.944364 
L 367.725445 114.040636 
L 370.274555 113.072727 
L 372.823664 114.040636 
L 375.372773 116.944364 
L 377.921882 121.783909 
L 380.470991 128.559273 
L 383.020101 137.270455 
L 385.56921 147.917455 
L 388.118319 160.500273 
L 393.216537 188.990591 
L 395.765646 202.131818 
L 398.314756 214.305136 
L 400.863865 225.510545 
L 403.412974 235.748045 
L 405.962083 245.017636 
L 408.511192 253.319318 
L 411.060302 260.653091 
L 413.609411 267.018955 
L 416.15852 272.416909 
L 418.707629 276.846955 
L 421.256738 280.309091 
L 423.805847 282.803318 
L 426.354957 284.329636 
L 428.904066 284.888045 
L 528.319324 284.890909 
L 622.636364 284.890909 
L 622.636364 284.890909 
" style="fill:none;stroke:#2ca02c;stroke-linecap:square;stroke-width:2;"/>
   </g>
   <g id="line2d_48">
    <path clip-path="url(#pbe0e426867)" d="M 115.363636 284.890909 
L 349.881681 284.890909 
L 352.43079 284.658955 
L 354.979899 283.504909 
L 357.529009 281.382955 
L 360.078118 278.293091 
L 362.627227 274.235318 
L 365.176336 269.209636 
L 367.725445 263.216045 
L 370.274555 256.254545 
L 372.823664 248.325136 
L 375.372773 239.427818 
L 377.921882 229.562591 
L 380.470991 218.729455 
L 383.020101 206.928409 
L 385.56921 194.159455 
L 388.118319 180.422591 
L 390.667428 165.855273 
L 393.216537 152.527909 
L 395.765646 141.136364 
L 398.314756 131.680636 
L 400.863865 124.160727 
L 403.412974 118.576636 
L 405.962083 114.928364 
L 408.511192 113.215909 
L 411.060302 113.439273 
L 413.609411 115.598455 
L 416.15852 119.693455 
L 418.707629 125.724273 
L 421.256738 133.690909 
L 423.805847 143.593364 
L 426.354957 155.431636 
L 428.904066 169.205727 
L 431.453175 183.678545 
L 434.002284 197.192045 
L 436.551393 209.737636 
L 439.100503 221.315318 
L 441.649612 231.925091 
L 444.198721 241.566955 
L 446.74783 250.240909 
L 449.296939 257.946955 
L 451.846048 264.685091 
L 454.395158 270.455318 
L 456.944267 275.257636 
L 459.493376 279.092045 
L 462.042485 281.958545 
L 464.591594 283.857136 
L 467.140704 284.787818 
L 472.238922 284.890909 
L 622.636364 284.890909 
L 622.636364 284.890909 
" style="fill:none;stroke:#2ca02c;stroke-linecap:square;stroke-width:2;"/>
   </g>
   <g id="line2d_49">
    <path clip-path="url(#pbe0e426867)" d="M 115.363636 284.890909 
L 390.667428 284.845091 
L 393.216537 284.063318 
L 395.765646 282.313636 
L 398.314756 279.596045 
L 400.863865 275.910545 
L 403.412974 271.257136 
L 405.962083 265.635818 
L 408.511192 259.046591 
L 411.060302 251.489455 
L 413.609411 242.964409 
L 416.15852 233.471455 
L 418.707629 223.010591 
L 421.256738 211.581818 
L 423.805847 199.185136 
L 426.354957 185.820545 
L 431.453175 157.424727 
L 434.002284 145.288636 
L 436.551393 135.088364 
L 439.100503 126.823909 
L 441.649612 120.495273 
L 444.198721 116.102455 
L 446.74783 113.645455 
L 449.296939 113.124273 
L 451.846048 114.538909 
L 454.395158 117.889364 
L 456.944267 123.175636 
L 459.493376 130.397727 
L 462.042485 139.555636 
L 464.591594 150.649364 
L 467.140704 163.678909 
L 469.689813 178.223318 
L 472.238922 192.109091 
L 474.788031 205.026955 
L 477.33714 216.976909 
L 479.886249 227.958955 
L 482.435359 237.973091 
L 484.984468 247.019318 
L 487.533577 255.097636 
L 490.082686 262.208045 
L 492.631795 268.350545 
L 495.180905 273.525136 
L 497.730014 277.731818 
L 500.279123 280.970591 
L 502.828232 283.241455 
L 505.377341 284.544409 
L 507.92645 284.890909 
L 622.636364 284.890909 
L 622.636364 284.890909 
" style="fill:none;stroke:#2ca02c;stroke-linecap:square;stroke-width:2;"/>
   </g>
   <g id="line2d_50">
    <path clip-path="url(#pbe0e426867)" d="M 115.363636 284.890909 
L 428.904066 284.890909 
L 431.453175 284.478545 
L 434.002284 283.101136 
L 436.551393 280.755818 
L 439.100503 277.442591 
L 441.649612 273.161455 
L 444.198721 267.912409 
L 446.74783 261.695455 
L 449.296939 254.510591 
L 451.846048 246.357818 
L 454.395158 237.237136 
L 456.944267 227.148545 
L 459.493376 216.092045 
L 462.042485 204.067636 
L 464.591594 191.075318 
L 472.238922 149.727273 
L 474.788031 138.782455 
L 477.33714 129.773455 
L 479.886249 122.700273 
L 482.435359 117.562909 
L 484.984468 114.361364 
L 487.533577 113.095636 
L 490.082686 113.765727 
L 492.631795 116.371636 
L 495.180905 120.913364 
L 497.730014 127.390909 
L 500.279123 135.804273 
L 502.828232 146.153455 
L 505.377341 158.438455 
L 510.47556 186.882955 
L 513.024669 200.173091 
L 515.573778 212.495318 
L 518.122887 223.849636 
L 520.671996 234.236045 
L 523.221106 243.654545 
L 525.770215 252.105136 
L 528.319324 259.587818 
L 530.868433 266.102591 
L 533.417542 271.649455 
L 535.966651 276.228409 
L 538.515761 279.839455 
L 541.06487 282.482591 
L 543.613979 284.157818 
L 546.163088 284.865136 
L 558.908634 284.890909 
L 622.636364 284.890909 
L 622.636364 284.890909 
" style="fill:none;stroke:#2ca02c;stroke-linecap:square;stroke-width:2;"/>
   </g>
   <g id="line2d_51">
    <path clip-path="url(#pbe0e426867)" d="M 115.363636 284.890909 
L 196.93513 284.87136 
L 199.484239 284.774507 
L 202.033349 284.537307 
L 204.582458 284.096847 
L 207.131567 283.390211 
L 209.680676 282.354486 
L 212.229785 280.926758 
L 214.778894 279.044113 
L 217.328004 276.643636 
L 219.877113 273.662414 
L 222.426222 270.037533 
L 224.975331 265.706077 
L 227.52444 260.605135 
L 230.07355 254.67179 
L 232.622659 247.843129 
L 235.171768 240.081648 
L 237.720877 231.512116 
L 240.269986 222.323122 
L 245.368205 202.841718 
L 250.466423 183.147374 
L 253.015532 173.692205 
L 255.564641 164.750028 
L 258.113751 156.509585 
L 260.66286 149.159619 
L 263.211969 142.888871 
L 265.761078 137.886084 
L 268.310187 134.34 
L 270.859296 132.439362 
L 273.408406 132.366725 
L 275.957515 134.132973 
L 278.506624 137.559185 
L 281.055733 142.456619 
L 283.604842 148.636533 
L 286.153952 155.910183 
L 288.703061 164.088829 
L 291.25217 172.983728 
L 296.350388 192.167313 
L 303.997716 221.596031 
L 306.546825 230.824858 
L 309.095934 239.448742 
L 311.645043 247.278959 
L 314.194153 254.179096 
L 316.743262 260.179078 
L 319.292371 265.341818 
L 321.84148 269.730231 
L 324.390589 273.407231 
L 326.939698 276.435732 
L 329.488808 278.878647 
L 332.037917 280.798892 
L 334.587026 282.25938 
L 337.136135 283.323025 
L 339.685244 284.052742 
L 342.234354 284.511444 
L 344.783463 284.762045 
L 349.881681 284.890604 
L 622.636364 284.890909 
L 622.636364 284.890909 
" style="fill:none;stroke:#d62728;stroke-linecap:square;stroke-width:2.5;"/>
   </g>
   <g id="line2d_52">
    <path clip-path="url(#pbe0e426867)" d="M 115.363636 284.890909 
L 237.720877 284.824931 
L 240.269986 284.649156 
L 242.819095 284.294318 
L 245.368205 283.697503 
L 247.917314 282.795796 
L 250.466423 281.526284 
L 253.015532 279.826053 
L 255.564641 277.632187 
L 258.113751 274.881775 
L 260.66286 271.5119 
L 263.211969 267.459649 
L 265.761078 262.662108 
L 268.310187 257.056364 
L 270.859296 250.579501 
L 273.408406 243.172729 
L 275.957515 234.891708 
L 278.506624 225.918633 
L 283.604842 206.651285 
L 291.25217 177.278409 
L 293.801279 168.116591 
L 296.350388 159.583914 
L 298.899497 151.86912 
L 301.448607 145.160952 
L 303.997716 139.648151 
L 306.546825 135.51946 
L 309.095934 132.963622 
L 311.645043 132.169349 
L 314.194153 133.246893 
L 316.743262 136.056993 
L 319.292371 140.410909 
L 321.84148 146.119898 
L 324.390589 152.995216 
L 326.939698 160.848123 
L 329.488808 169.489876 
L 334.587026 188.384951 
L 342.234354 217.92535 
L 344.783463 227.336591 
L 347.332572 236.215482 
L 349.881681 244.37328 
L 352.43079 251.635161 
L 354.979899 257.973911 
L 357.529009 263.451222 
L 360.078118 268.130007 
L 362.627227 272.073182 
L 365.176336 275.34366 
L 367.725445 278.004355 
L 370.274555 280.118182 
L 372.823664 281.748054 
L 375.372773 282.956885 
L 377.921882 283.807591 
L 380.470991 284.363084 
L 383.020101 284.686278 
L 388.118319 284.88743 
L 469.689813 284.890909 
L 622.636364 284.890909 
L 622.636364 284.890909 
" style="fill:none;stroke:#d62728;stroke-linecap:square;stroke-width:2.5;"/>
   </g>
   <g id="line2d_53">
    <path clip-path="url(#pbe0e426867)" d="M 115.363636 284.890909 
L 275.957515 284.858173 
L 278.506624 284.734516 
L 281.055733 284.455994 
L 283.604842 283.959693 
L 286.153952 283.182697 
L 288.703061 282.062095 
L 291.25217 280.53497 
L 293.801279 278.538409 
L 296.350388 276.009498 
L 298.899497 272.885324 
L 301.448607 269.102971 
L 303.997716 264.599525 
L 306.546825 259.312074 
L 309.095934 253.177702 
L 311.645043 246.133514 
L 314.194153 238.168925 
L 316.743262 229.439688 
L 321.84148 210.442239 
L 329.488808 180.92976 
L 332.037917 171.576222 
L 334.587026 162.779231 
L 337.136135 154.72753 
L 339.685244 147.609862 
L 342.234354 141.614968 
L 344.783463 136.931591 
L 347.332572 133.748473 
L 349.881681 132.254356 
L 352.43079 132.617107 
L 354.979899 134.783176 
L 357.529009 138.565653 
L 360.078118 143.775796 
L 362.627227 150.224863 
L 365.176336 157.724111 
L 367.725445 166.084798 
L 370.274555 175.118182 
L 375.372773 194.448071 
L 383.020101 223.769574 
L 385.56921 232.875551 
L 388.118319 241.333029 
L 390.667428 248.954487 
L 393.216537 255.641312 
L 395.765646 261.4425 
L 398.314756 266.420965 
L 400.863865 270.639622 
L 403.412974 274.161384 
L 405.962083 277.049165 
L 408.511192 279.365881 
L 411.060302 281.174444 
L 413.609411 282.537768 
L 416.15852 283.518769 
L 418.707629 284.18036 
L 421.256738 284.585455 
L 423.805847 284.796967 
L 428.904066 284.890904 
L 622.636364 284.890909 
L 622.636364 284.890909 
" style="fill:none;stroke:#d62728;stroke-linecap:square;stroke-width:2.5;"/>
   </g>
   <g id="line2d_54">
    <path clip-path="url(#pbe0e426867)" d="M 115.363636 284.890909 
L 316.743262 284.796967 
L 319.292371 284.585455 
L 321.84148 284.18036 
L 324.390589 283.518769 
L 326.939698 282.537768 
L 329.488808 281.174444 
L 332.037917 279.365881 
L 334.587026 277.049165 
L 337.136135 274.161384 
L 339.685244 270.639622 
L 342.234354 266.420965 
L 344.783463 261.4425 
L 347.332572 255.641312 
L 349.881681 248.954487 
L 352.43079 241.333029 
L 354.979899 232.875551 
L 357.529009 223.769574 
L 362.627227 204.367092 
L 367.725445 184.63552 
L 370.274555 175.118182 
L 372.823664 166.084798 
L 375.372773 157.724111 
L 377.921882 150.224863 
L 380.470991 143.775796 
L 383.020101 138.565653 
L 385.56921 134.783176 
L 388.118319 132.617107 
L 390.667428 132.254356 
L 393.216537 133.748473 
L 395.765646 136.931591 
L 398.314756 141.614968 
L 400.863865 147.609862 
L 403.412974 154.72753 
L 405.962083 162.779231 
L 408.511192 171.576222 
L 413.609411 190.651104 
L 421.256738 220.134545 
L 423.805847 229.439688 
L 426.354957 238.168925 
L 428.904066 246.133514 
L 431.453175 253.177702 
L 434.002284 259.312074 
L 436.551393 264.599525 
L 439.100503 269.102971 
L 441.649612 272.885324 
L 444.198721 276.009498 
L 446.74783 278.538409 
L 449.296939 280.53497 
L 451.846048 282.062095 
L 454.395158 283.182697 
L 456.944267 283.959693 
L 459.493376 284.455994 
L 462.042485 284.734516 
L 467.140704 284.889878 
L 622.636364 284.890909 
L 622.636364 284.890909 
" style="fill:none;stroke:#d62728;stroke-linecap:square;stroke-width:2.5;"/>
   </g>
   <g id="line2d_55">
    <path clip-path="url(#pbe0e426867)" d="M 115.363636 284.890909 
L 354.979899 284.840089 
L 357.529009 284.686278 
L 360.078118 284.363084 
L 362.627227 283.807591 
L 365.176336 282.956885 
L 367.725445 281.748054 
L 370.274555 280.118182 
L 372.823664 278.004355 
L 375.372773 275.34366 
L 377.921882 272.073182 
L 380.470991 268.130007 
L 383.020101 263.451222 
L 385.56921 257.973911 
L 388.118319 251.635161 
L 390.667428 244.37328 
L 393.216537 236.215482 
L 395.765646 227.336591 
L 400.863865 208.170502 
L 408.511192 178.731733 
L 411.060302 169.489876 
L 413.609411 160.848123 
L 416.15852 152.995216 
L 418.707629 146.119897 
L 421.256738 140.410909 
L 423.805847 136.056993 
L 426.354957 133.246893 
L 428.904066 132.169349 
L 431.453175 132.963622 
L 434.002284 135.51946 
L 436.551393 139.648151 
L 439.100503 145.160952 
L 441.649612 151.86912 
L 444.198721 159.583914 
L 446.74783 168.116591 
L 449.296939 177.278409 
L 454.395158 196.734498 
L 459.493376 216.442244 
L 462.042485 225.918633 
L 464.591594 234.891708 
L 467.140704 243.172729 
L 469.689813 250.579501 
L 472.238922 257.056364 
L 474.788031 262.662108 
L 477.33714 267.459649 
L 479.886249 271.5119 
L 482.435359 274.881775 
L 484.984468 277.632187 
L 487.533577 279.826053 
L 490.082686 281.526284 
L 492.631795 282.795796 
L 495.180905 283.697503 
L 497.730014 284.294318 
L 500.279123 284.649156 
L 502.828232 284.824931 
L 507.92645 284.890909 
L 622.636364 284.890909 
L 622.636364 284.890909 
" style="fill:none;stroke:#d62728;stroke-linecap:square;stroke-width:2.5;"/>
   </g>
   <g id="line2d_56">
    <path clip-path="url(#pbe0e426867)" d="M 115.363636 284.890909 
L 393.216537 284.867461 
L 395.765646 284.762045 
L 398.314756 284.511444 
L 400.863865 284.052742 
L 403.412974 283.323025 
L 405.962083 282.25938 
L 408.511192 280.798892 
L 411.060302 278.878647 
L 413.609411 276.435732 
L 416.15852 273.407231 
L 418.707629 269.730231 
L 421.256738 265.341818 
L 423.805847 260.179078 
L 426.354957 254.179096 
L 428.904066 247.278959 
L 431.453175 239.448742 
L 434.002284 230.824858 
L 439.100503 211.951003 
L 446.74783 182.406136 
L 449.296939 172.983727 
L 451.846048 164.088829 
L 454.395158 155.910183 
L 456.944267 148.636533 
L 459.493376 142.456619 
L 462.042485 137.559185 
L 464.591594 134.132973 
L 467.140704 132.366725 
L 469.689813 132.439362 
L 472.238922 134.34 
L 474.788031 137.886084 
L 477.33714 142.888871 
L 479.886249 149.159619 
L 482.435359 156.509585 
L 484.984468 164.750028 
L 487.533577 173.692205 
L 492.631795 192.926793 
L 500.279123 222.323122 
L 502.828232 231.512116 
L 505.377341 240.081648 
L 507.92645 247.843129 
L 510.47556 254.67179 
L 513.024669 260.605135 
L 515.573778 265.706077 
L 518.122887 270.037533 
L 520.671996 273.662414 
L 523.221106 276.643636 
L 525.770215 279.044113 
L 528.319324 280.926758 
L 530.868433 282.354486 
L 533.417542 283.390211 
L 535.966651 284.096847 
L 538.515761 284.537307 
L 541.06487 284.774507 
L 546.163088 284.89078 
L 622.636364 284.890909 
L 622.636364 284.890909 
" style="fill:none;stroke:#d62728;stroke-linecap:square;stroke-width:2.5;"/>
   </g>
   <g id="line2d_57">
    <defs>
     <path d="M -4 4 
L 4 -4 
M -4 -4 
L 4 4 
" id="mb61019e327" style="stroke:#008000;stroke-width:3;"/>
    </defs>
    <g clip-path="url(#pbe0e426867)">
     <use style="fill:#008000;stroke:#008000;stroke-width:3;" x="193.797765" xlink:href="#mb61019e327" y="284.890909"/>
     <use style="fill:#008000;stroke:#008000;stroke-width:3;" x="233.014829" xlink:href="#mb61019e327" y="284.890909"/>
     <use style="fill:#008000;stroke:#008000;stroke-width:3;" x="272.231894" xlink:href="#mb61019e327" y="284.890909"/>
     <use style="fill:#008000;stroke:#008000;stroke-width:3;" x="311.448958" xlink:href="#mb61019e327" y="284.890909"/>
     <use style="fill:#008000;stroke:#008000;stroke-width:3;" x="350.666022" xlink:href="#mb61019e327" y="284.890909"/>
     <use style="fill:#008000;stroke:#008000;stroke-width:3;" x="389.883087" xlink:href="#mb61019e327" y="284.890909"/>
     <use style="fill:#008000;stroke:#008000;stroke-width:3;" x="429.100151" xlink:href="#mb61019e327" y="284.890909"/>
     <use style="fill:#008000;stroke:#008000;stroke-width:3;" x="468.317215" xlink:href="#mb61019e327" y="284.890909"/>
     <use style="fill:#008000;stroke:#008000;stroke-width:3;" x="507.53428" xlink:href="#mb61019e327" y="284.890909"/>
     <use style="fill:#008000;stroke:#008000;stroke-width:3;" x="546.751344" xlink:href="#mb61019e327" y="284.890909"/>
    </g>
   </g>
   <g id="line2d_58">
    <path clip-path="url(#pbe0e426867)" d="M 193.797765 307.8 
" style="fill:none;stroke:#1f77b4;stroke-linecap:square;stroke-width:1.5;"/>
   </g>
   <g id="patch_3">
    <path d="M 90 320.4 
L 90 43.2 
" style="fill:none;stroke:#000000;stroke-linecap:square;stroke-linejoin:miter;stroke-width:0.8;"/>
   </g>
   <g id="patch_4">
    <path d="M 648 320.4 
L 648 43.2 
" style="fill:none;stroke:#000000;stroke-linecap:square;stroke-linejoin:miter;stroke-width:0.8;"/>
   </g>
   <g id="patch_5">
    <path d="M 90 320.4 
L 648 320.4 
" style="fill:none;stroke:#000000;stroke-linecap:square;stroke-linejoin:miter;stroke-width:0.8;"/>
   </g>
   <g id="patch_6">
    <path d="M 90 43.2 
L 648 43.2 
" style="fill:none;stroke:#000000;stroke-linecap:square;stroke-linejoin:miter;stroke-width:0.8;"/>
   </g>
   <g id="text_16">
    <!-- $k_0$ -->
    <defs>
     <path d="M 18.3125 75.984375 
L 27.296875 75.984375 
L 18.703125 31.6875 
L 49.515625 54.6875 
L 61.1875 54.6875 
L 26.8125 28.515625 
L 51.90625 0 
L 41.015625 0 
L 17.671875 26.703125 
L 12.5 0 
L 3.515625 0 
z
" id="DejaVuSans-Oblique-6b"/>
     <path d="M 31.78125 66.40625 
Q 24.171875 66.40625 20.328125 58.90625 
Q 16.5 51.421875 16.5 36.375 
Q 16.5 21.390625 20.328125 13.890625 
Q 24.171875 6.390625 31.78125 6.390625 
Q 39.453125 6.390625 43.28125 13.890625 
Q 47.125 21.390625 47.125 36.375 
Q 47.125 51.421875 43.28125 58.90625 
Q 39.453125 66.40625 31.78125 66.40625 
z
M 31.78125 74.21875 
Q 44.046875 74.21875 50.515625 64.515625 
Q 56.984375 54.828125 56.984375 36.375 
Q 56.984375 17.96875 50.515625 8.265625 
Q 44.046875 -1.421875 31.78125 -1.421875 
Q 19.53125 -1.421875 13.0625 8.265625 
Q 6.59375 17.96875 6.59375 36.375 
Q 6.59375 54.828125 13.0625 64.515625 
Q 19.53125 74.21875 31.78125 74.21875 
z
" id="DejaVuSans-30"/>
    </defs>
    <g transform="translate(193.797765 307.8)scale(0.14 -0.14)">
     <use transform="translate(0 0.015625)" xlink:href="#DejaVuSans-Oblique-6b"/>
     <use transform="translate(57.910156 -16.390625)scale(0.7)" xlink:href="#DejaVuSans-30"/>
    </g>
   </g>
   <g id="text_17">
    <!-- $k_1$ -->
    <defs>
     <path d="M 12.40625 8.296875 
L 28.515625 8.296875 
L 28.515625 63.921875 
L 10.984375 60.40625 
L 10.984375 69.390625 
L 28.421875 72.90625 
L 38.28125 72.90625 
L 38.28125 8.296875 
L 54.390625 8.296875 
L 54.390625 0 
L 12.40625 0 
z
" id="DejaVuSans-31"/>
    </defs>
    <g transform="translate(233.014829 307.8)scale(0.14 -0.14)">
     <use transform="translate(0 0.015625)" xlink:href="#DejaVuSans-Oblique-6b"/>
     <use transform="translate(57.910156 -16.390625)scale(0.7)" xlink:href="#DejaVuSans-31"/>
    </g>
   </g>
   <g id="text_18">
    <!-- $k_2$ -->
    <defs>
     <path d="M 19.1875 8.296875 
L 53.609375 8.296875 
L 53.609375 0 
L 7.328125 0 
L 7.328125 8.296875 
Q 12.9375 14.109375 22.625 23.890625 
Q 32.328125 33.6875 34.8125 36.53125 
Q 39.546875 41.84375 41.421875 45.53125 
Q 43.3125 49.21875 43.3125 52.78125 
Q 43.3125 58.59375 39.234375 62.25 
Q 35.15625 65.921875 28.609375 65.921875 
Q 23.96875 65.921875 18.8125 64.3125 
Q 13.671875 62.703125 7.8125 59.421875 
L 7.8125 69.390625 
Q 13.765625 71.78125 18.9375 73 
Q 24.125 74.21875 28.421875 74.21875 
Q 39.75 74.21875 46.484375 68.546875 
Q 53.21875 62.890625 53.21875 53.421875 
Q 53.21875 48.921875 51.53125 44.890625 
Q 49.859375 40.875 45.40625 35.40625 
Q 44.1875 33.984375 37.640625 27.21875 
Q 31.109375 20.453125 19.1875 8.296875 
z
" id="DejaVuSans-32"/>
    </defs>
    <g transform="translate(272.231894 307.8)scale(0.14 -0.14)">
     <use transform="translate(0 0.015625)" xlink:href="#DejaVuSans-Oblique-6b"/>
     <use transform="translate(57.910156 -16.390625)scale(0.7)" xlink:href="#DejaVuSans-32"/>
    </g>
   </g>
   <g id="text_19">
    <!-- $k_3$ -->
    <defs>
     <path d="M 40.578125 39.3125 
Q 47.65625 37.796875 51.625 33 
Q 55.609375 28.21875 55.609375 21.1875 
Q 55.609375 10.40625 48.1875 4.484375 
Q 40.765625 -1.421875 27.09375 -1.421875 
Q 22.515625 -1.421875 17.65625 -0.515625 
Q 12.796875 0.390625 7.625 2.203125 
L 7.625 11.71875 
Q 11.71875 9.328125 16.59375 8.109375 
Q 21.484375 6.890625 26.8125 6.890625 
Q 36.078125 6.890625 40.9375 10.546875 
Q 45.796875 14.203125 45.796875 21.1875 
Q 45.796875 27.640625 41.28125 31.265625 
Q 36.765625 34.90625 28.71875 34.90625 
L 20.21875 34.90625 
L 20.21875 43.015625 
L 29.109375 43.015625 
Q 36.375 43.015625 40.234375 45.921875 
Q 44.09375 48.828125 44.09375 54.296875 
Q 44.09375 59.90625 40.109375 62.90625 
Q 36.140625 65.921875 28.71875 65.921875 
Q 24.65625 65.921875 20.015625 65.03125 
Q 15.375 64.15625 9.8125 62.3125 
L 9.8125 71.09375 
Q 15.4375 72.65625 20.34375 73.4375 
Q 25.25 74.21875 29.59375 74.21875 
Q 40.828125 74.21875 47.359375 69.109375 
Q 53.90625 64.015625 53.90625 55.328125 
Q 53.90625 49.265625 50.4375 45.09375 
Q 46.96875 40.921875 40.578125 39.3125 
z
" id="DejaVuSans-33"/>
    </defs>
    <g transform="translate(311.448958 307.8)scale(0.14 -0.14)">
     <use transform="translate(0 0.015625)" xlink:href="#DejaVuSans-Oblique-6b"/>
     <use transform="translate(57.910156 -16.390625)scale(0.7)" xlink:href="#DejaVuSans-33"/>
    </g>
   </g>
   <g id="text_20">
    <!-- $k_4$ -->
    <defs>
     <path d="M 37.796875 64.3125 
L 12.890625 25.390625 
L 37.796875 25.390625 
z
M 35.203125 72.90625 
L 47.609375 72.90625 
L 47.609375 25.390625 
L 58.015625 25.390625 
L 58.015625 17.1875 
L 47.609375 17.1875 
L 47.609375 0 
L 37.796875 0 
L 37.796875 17.1875 
L 4.890625 17.1875 
L 4.890625 26.703125 
z
" id="DejaVuSans-34"/>
    </defs>
    <g transform="translate(350.666022 307.8)scale(0.14 -0.14)">
     <use transform="translate(0 0.015625)" xlink:href="#DejaVuSans-Oblique-6b"/>
     <use transform="translate(57.910156 -16.390625)scale(0.7)" xlink:href="#DejaVuSans-34"/>
    </g>
   </g>
   <g id="text_21">
    <!-- $k_5$ -->
    <defs>
     <path d="M 10.796875 72.90625 
L 49.515625 72.90625 
L 49.515625 64.59375 
L 19.828125 64.59375 
L 19.828125 46.734375 
Q 21.96875 47.46875 24.109375 47.828125 
Q 26.265625 48.1875 28.421875 48.1875 
Q 40.625 48.1875 47.75 41.5 
Q 54.890625 34.8125 54.890625 23.390625 
Q 54.890625 11.625 47.5625 5.09375 
Q 40.234375 -1.421875 26.90625 -1.421875 
Q 22.3125 -1.421875 17.546875 -0.640625 
Q 12.796875 0.140625 7.71875 1.703125 
L 7.71875 11.625 
Q 12.109375 9.234375 16.796875 8.0625 
Q 21.484375 6.890625 26.703125 6.890625 
Q 35.15625 6.890625 40.078125 11.328125 
Q 45.015625 15.765625 45.015625 23.390625 
Q 45.015625 31 40.078125 35.4375 
Q 35.15625 39.890625 26.703125 39.890625 
Q 22.75 39.890625 18.8125 39.015625 
Q 14.890625 38.140625 10.796875 36.28125 
z
" id="DejaVuSans-35"/>
    </defs>
    <g transform="translate(389.883087 307.8)scale(0.14 -0.14)">
     <use transform="translate(0 0.015625)" xlink:href="#DejaVuSans-Oblique-6b"/>
     <use transform="translate(57.910156 -16.390625)scale(0.7)" xlink:href="#DejaVuSans-35"/>
    </g>
   </g>
   <g id="text_22">
    <!-- $k_6$ -->
    <defs>
     <path d="M 33.015625 40.375 
Q 26.375 40.375 22.484375 35.828125 
Q 18.609375 31.296875 18.609375 23.390625 
Q 18.609375 15.53125 22.484375 10.953125 
Q 26.375 6.390625 33.015625 6.390625 
Q 39.65625 6.390625 43.53125 10.953125 
Q 47.40625 15.53125 47.40625 23.390625 
Q 47.40625 31.296875 43.53125 35.828125 
Q 39.65625 40.375 33.015625 40.375 
z
M 52.59375 71.296875 
L 52.59375 62.3125 
Q 48.875 64.0625 45.09375 64.984375 
Q 41.3125 65.921875 37.59375 65.921875 
Q 27.828125 65.921875 22.671875 59.328125 
Q 17.53125 52.734375 16.796875 39.40625 
Q 19.671875 43.65625 24.015625 45.921875 
Q 28.375 48.1875 33.59375 48.1875 
Q 44.578125 48.1875 50.953125 41.515625 
Q 57.328125 34.859375 57.328125 23.390625 
Q 57.328125 12.15625 50.6875 5.359375 
Q 44.046875 -1.421875 33.015625 -1.421875 
Q 20.359375 -1.421875 13.671875 8.265625 
Q 6.984375 17.96875 6.984375 36.375 
Q 6.984375 53.65625 15.1875 63.9375 
Q 23.390625 74.21875 37.203125 74.21875 
Q 40.921875 74.21875 44.703125 73.484375 
Q 48.484375 72.75 52.59375 71.296875 
z
" id="DejaVuSans-36"/>
    </defs>
    <g transform="translate(429.100151 307.8)scale(0.14 -0.14)">
     <use transform="translate(0 0.015625)" xlink:href="#DejaVuSans-Oblique-6b"/>
     <use transform="translate(57.910156 -16.390625)scale(0.7)" xlink:href="#DejaVuSans-36"/>
    </g>
   </g>
   <g id="text_23">
    <!-- $k_7$ -->
    <defs>
     <path d="M 8.203125 72.90625 
L 55.078125 72.90625 
L 55.078125 68.703125 
L 28.609375 0 
L 18.3125 0 
L 43.21875 64.59375 
L 8.203125 64.59375 
z
" id="DejaVuSans-37"/>
    </defs>
    <g transform="translate(468.317215 307.8)scale(0.14 -0.14)">
     <use transform="translate(0 0.015625)" xlink:href="#DejaVuSans-Oblique-6b"/>
     <use transform="translate(57.910156 -16.390625)scale(0.7)" xlink:href="#DejaVuSans-37"/>
    </g>
   </g>
   <g id="text_24">
    <!-- $k_8$ -->
    <defs>
     <path d="M 31.78125 34.625 
Q 24.75 34.625 20.71875 30.859375 
Q 16.703125 27.09375 16.703125 20.515625 
Q 16.703125 13.921875 20.71875 10.15625 
Q 24.75 6.390625 31.78125 6.390625 
Q 38.8125 6.390625 42.859375 10.171875 
Q 46.921875 13.96875 46.921875 20.515625 
Q 46.921875 27.09375 42.890625 30.859375 
Q 38.875 34.625 31.78125 34.625 
z
M 21.921875 38.8125 
Q 15.578125 40.375 12.03125 44.71875 
Q 8.5 49.078125 8.5 55.328125 
Q 8.5 64.0625 14.71875 69.140625 
Q 20.953125 74.21875 31.78125 74.21875 
Q 42.671875 74.21875 48.875 69.140625 
Q 55.078125 64.0625 55.078125 55.328125 
Q 55.078125 49.078125 51.53125 44.71875 
Q 48 40.375 41.703125 38.8125 
Q 48.828125 37.15625 52.796875 32.3125 
Q 56.78125 27.484375 56.78125 20.515625 
Q 56.78125 9.90625 50.3125 4.234375 
Q 43.84375 -1.421875 31.78125 -1.421875 
Q 19.734375 -1.421875 13.25 4.234375 
Q 6.78125 9.90625 6.78125 20.515625 
Q 6.78125 27.484375 10.78125 32.3125 
Q 14.796875 37.15625 21.921875 38.8125 
z
M 18.3125 54.390625 
Q 18.3125 48.734375 21.84375 45.5625 
Q 25.390625 42.390625 31.78125 42.390625 
Q 38.140625 42.390625 41.71875 45.5625 
Q 45.3125 48.734375 45.3125 54.390625 
Q 45.3125 60.0625 41.71875 63.234375 
Q 38.140625 66.40625 31.78125 66.40625 
Q 25.390625 66.40625 21.84375 63.234375 
Q 18.3125 60.0625 18.3125 54.390625 
z
" id="DejaVuSans-38"/>
    </defs>
    <g transform="translate(507.53428 307.8)scale(0.14 -0.14)">
     <use transform="translate(0 0.015625)" xlink:href="#DejaVuSans-Oblique-6b"/>
     <use transform="translate(57.910156 -16.390625)scale(0.7)" xlink:href="#DejaVuSans-38"/>
    </g>
   </g>
   <g id="text_25">
    <!-- $k_9$ -->
    <defs>
     <path d="M 10.984375 1.515625 
L 10.984375 10.5 
Q 14.703125 8.734375 18.5 7.8125 
Q 22.3125 6.890625 25.984375 6.890625 
Q 35.75 6.890625 40.890625 13.453125 
Q 46.046875 20.015625 46.78125 33.40625 
Q 43.953125 29.203125 39.59375 26.953125 
Q 35.25 24.703125 29.984375 24.703125 
Q 19.046875 24.703125 12.671875 31.3125 
Q 6.296875 37.9375 6.296875 49.421875 
Q 6.296875 60.640625 12.9375 67.421875 
Q 19.578125 74.21875 30.609375 74.21875 
Q 43.265625 74.21875 49.921875 64.515625 
Q 56.59375 54.828125 56.59375 36.375 
Q 56.59375 19.140625 48.40625 8.859375 
Q 40.234375 -1.421875 26.421875 -1.421875 
Q 22.703125 -1.421875 18.890625 -0.6875 
Q 15.09375 0.046875 10.984375 1.515625 
z
M 30.609375 32.421875 
Q 37.25 32.421875 41.125 36.953125 
Q 45.015625 41.5 45.015625 49.421875 
Q 45.015625 57.28125 41.125 61.84375 
Q 37.25 66.40625 30.609375 66.40625 
Q 23.96875 66.40625 20.09375 61.84375 
Q 16.21875 57.28125 16.21875 49.421875 
Q 16.21875 41.5 20.09375 36.953125 
Q 23.96875 32.421875 30.609375 32.421875 
z
" id="DejaVuSans-39"/>
    </defs>
    <g transform="translate(546.751344 307.8)scale(0.14 -0.14)">
     <use transform="translate(0 0.015625)" xlink:href="#DejaVuSans-Oblique-6b"/>
     <use transform="translate(57.910156 -16.390625)scale(0.7)" xlink:href="#DejaVuSans-39"/>
    </g>
   </g>
   <g id="patch_7">
    <path d="M 161.755049 69.371948 
Q 186.614419 62.839868 210.392461 56.591919 
" style="fill:none;stroke:#000000;stroke-linecap:round;"/>
    <path d="M 206.015517 55.67412 
L 210.392461 56.591919 
L 207.032055 59.542795 
" style="fill:none;stroke:#000000;stroke-linecap:round;"/>
   </g>
   <g id="text_26">
    <!-- degree 0 -->
    <defs>
     <path d="M 55.421875 0 
L 45.84375 0 
L 45.84375 8.984375 
L 45.65625 8.984375 
Q 39.75 -1.265625 27.296875 -1.265625 
Q 17.046875 -1.265625 10.984375 6.03125 
Q 4.9375 13.328125 4.9375 25.734375 
Q 4.9375 39.109375 11.765625 47.1875 
Q 18.609375 55.28125 29.640625 55.28125 
Q 40.671875 55.28125 45.65625 46.6875 
L 45.84375 46.6875 
L 45.84375 79.9375 
L 55.421875 79.9375 
z
M 45.90625 32.125 
Q 45.90625 38.625 41.625 42.984375 
Q 37.359375 47.359375 31.109375 47.359375 
Q 23.484375 47.359375 19.09375 41.671875 
Q 14.703125 35.984375 14.703125 26.171875 
Q 14.703125 17.140625 18.921875 11.890625 
Q 23.140625 6.640625 30.171875 6.640625 
Q 37.109375 6.640625 41.5 11.78125 
Q 45.90625 16.9375 45.90625 24.609375 
z
" id="MicrosoftYaHei-64"/>
     <path d="M 52.546875 24.5625 
L 14.75 24.5625 
Q 14.984375 15.921875 19.46875 11.203125 
Q 23.96875 6.5 32.03125 6.5 
Q 41.109375 6.5 48.6875 12.3125 
L 48.6875 3.765625 
Q 41.546875 -1.265625 29.78125 -1.265625 
Q 18.0625 -1.265625 11.5 6.15625 
Q 4.9375 13.578125 4.9375 26.765625 
Q 4.9375 39.15625 12.140625 47.21875 
Q 19.34375 55.28125 30.03125 55.28125 
Q 40.625 55.28125 46.578125 48.46875 
Q 52.546875 41.65625 52.546875 29.390625 
z
M 42.96875 32.234375 
Q 42.921875 39.546875 39.5 43.546875 
Q 36.078125 47.5625 29.890625 47.5625 
Q 24.171875 47.5625 20 43.3125 
Q 15.828125 39.0625 14.75 32.234375 
z
" id="MicrosoftYaHei-65"/>
     <path d="M 55.421875 4.546875 
Q 55.421875 -25.4375 26.3125 -25.4375 
Q 16.265625 -25.4375 8.84375 -21.6875 
L 8.84375 -12.453125 
Q 17.875 -17.484375 26.171875 -17.484375 
Q 45.84375 -17.484375 45.84375 3.21875 
L 45.84375 8.9375 
L 45.65625 8.9375 
Q 39.5 -1.265625 27.296875 -1.265625 
Q 17.140625 -1.265625 11.03125 6 
Q 4.9375 13.28125 4.9375 25.296875 
Q 4.9375 39.109375 11.671875 47.1875 
Q 18.40625 55.28125 29.640625 55.28125 
Q 40.4375 55.28125 45.65625 46.6875 
L 45.84375 46.6875 
L 45.84375 54 
L 55.421875 54 
z
M 45.84375 32.125 
Q 45.90625 38.375 41.65625 42.859375 
Q 37.40625 47.359375 31.203125 47.359375 
Q 23.390625 47.359375 19.046875 41.625 
Q 14.703125 35.890625 14.703125 25.875 
Q 14.703125 17.28125 18.890625 11.953125 
Q 23.09375 6.640625 30.03125 6.640625 
Q 37.015625 6.640625 41.453125 11.71875 
Q 45.90625 16.796875 45.84375 24.609375 
z
" id="MicrosoftYaHei-67"/>
     <path d="M 37.5 44.53125 
Q 35.109375 46.234375 30.90625 46.234375 
Q 25.34375 46.234375 21.71875 41.03125 
Q 18.109375 35.84375 18.109375 27.34375 
L 18.109375 0 
L 8.546875 0 
L 8.546875 54 
L 18.109375 54 
L 18.109375 43.015625 
L 18.3125 43.015625 
Q 22.40625 54.9375 32.46875 54.9375 
Q 35.75 54.9375 37.5 54.203125 
z
" id="MicrosoftYaHei-72"/>
     <path id="MicrosoftYaHei-20"/>
    </defs>
    <g transform="translate(115.363636 78.709091)scale(0.1 -0.1)">
     <use xlink:href="#MicrosoftYaHei-64"/>
     <use x="63.964844" xlink:href="#MicrosoftYaHei-65"/>
     <use x="120.703125" xlink:href="#MicrosoftYaHei-67"/>
     <use x="184.667969" xlink:href="#MicrosoftYaHei-72"/>
     <use x="222.835938" xlink:href="#MicrosoftYaHei-65"/>
     <use x="279.574219" xlink:href="#MicrosoftYaHei-65"/>
     <use x="336.3125" xlink:href="#MicrosoftYaHei-20"/>
     <use x="365.902344" xlink:href="#MicrosoftYaHei-30"/>
    </g>
   </g>
   <g id="patch_8">
    <path d="M 154.007449 113.688611 
Q 190.644024 96.621044 226.267143 80.025606 
" style="fill:none;stroke:#000000;stroke-linecap:round;"/>
    <path d="M 221.796721 79.901824 
L 226.267143 80.025606 
L 223.485865 83.527675 
" style="fill:none;stroke:#000000;stroke-linecap:round;"/>
   </g>
   <g id="text_27">
    <!-- degree 1 -->
    <g transform="translate(115.363636 124.527273)scale(0.1 -0.1)">
     <use xlink:href="#MicrosoftYaHei-64"/>
     <use x="63.964844" xlink:href="#MicrosoftYaHei-65"/>
     <use x="120.703125" xlink:href="#MicrosoftYaHei-67"/>
     <use x="184.667969" xlink:href="#MicrosoftYaHei-72"/>
     <use x="222.835938" xlink:href="#MicrosoftYaHei-65"/>
     <use x="279.574219" xlink:href="#MicrosoftYaHei-65"/>
     <use x="336.3125" xlink:href="#MicrosoftYaHei-20"/>
     <use x="365.902344" xlink:href="#MicrosoftYaHei-31"/>
    </g>
   </g>
   <g id="patch_9">
    <path d="M 153.331987 159.475076 
Q 200.118947 136.710765 245.900557 114.435608 
" style="fill:none;stroke:#000000;stroke-linecap:round;"/>
    <path d="M 241.428683 114.38724 
L 245.900557 114.435608 
L 243.178738 117.984087 
" style="fill:none;stroke:#000000;stroke-linecap:round;"/>
   </g>
   <g id="text_28">
    <!-- degree 2 -->
    <g transform="translate(115.363636 170.345455)scale(0.1 -0.1)">
     <use xlink:href="#MicrosoftYaHei-64"/>
     <use x="63.964844" xlink:href="#MicrosoftYaHei-65"/>
     <use x="120.703125" xlink:href="#MicrosoftYaHei-67"/>
     <use x="184.667969" xlink:href="#MicrosoftYaHei-72"/>
     <use x="222.835938" xlink:href="#MicrosoftYaHei-65"/>
     <use x="279.574219" xlink:href="#MicrosoftYaHei-65"/>
     <use x="336.3125" xlink:href="#MicrosoftYaHei-20"/>
     <use x="365.902344" xlink:href="#MicrosoftYaHei-32"/>
    </g>
   </g>
   <g id="patch_10">
    <path d="M 150.290657 205.135396 
Q 206.484741 171.07671 261.722696 137.597524 
" style="fill:none;stroke:#000000;stroke-linecap:round;"/>
    <path d="M 257.26531 137.960432 
L 261.722696 137.597524 
L 259.338591 141.381178 
" style="fill:none;stroke:#000000;stroke-linecap:round;"/>
   </g>
   <g id="text_29">
    <!-- degree 3 -->
    <defs>
     <path d="M 6.984375 12.640625 
Q 14.75 6.640625 24.515625 6.640625 
Q 32.328125 6.640625 36.890625 10.46875 
Q 41.453125 14.3125 41.453125 20.75 
Q 41.453125 35.109375 20.90625 35.109375 
L 14.59375 35.109375 
L 14.59375 43.015625 
L 20.609375 43.015625 
Q 38.8125 43.015625 38.8125 56.5 
Q 38.8125 68.953125 24.90625 68.953125 
Q 16.9375 68.953125 9.90625 63.578125 
L 9.90625 72.609375 
Q 17.328125 76.90625 27.25 76.90625 
Q 36.921875 76.90625 42.78125 71.84375 
Q 48.640625 66.796875 48.640625 58.734375 
Q 48.640625 43.890625 33.5 39.65625 
L 33.5 39.453125 
Q 41.703125 38.578125 46.453125 33.671875 
Q 51.21875 28.765625 51.21875 21.4375 
Q 51.21875 11.234375 43.875 4.984375 
Q 36.53125 -1.265625 24.3125 -1.265625 
Q 13.578125 -1.265625 6.984375 2.734375 
z
" id="MicrosoftYaHei-33"/>
    </defs>
    <g transform="translate(115.363636 216.163636)scale(0.1 -0.1)">
     <use xlink:href="#MicrosoftYaHei-64"/>
     <use x="63.964844" xlink:href="#MicrosoftYaHei-65"/>
     <use x="120.703125" xlink:href="#MicrosoftYaHei-67"/>
     <use x="184.667969" xlink:href="#MicrosoftYaHei-72"/>
     <use x="222.835938" xlink:href="#MicrosoftYaHei-65"/>
     <use x="279.574219" xlink:href="#MicrosoftYaHei-65"/>
     <use x="336.3125" xlink:href="#MicrosoftYaHei-20"/>
     <use x="365.902344" xlink:href="#MicrosoftYaHei-33"/>
    </g>
   </g>
   <g id="legend_1">
    <g id="patch_11">
     <path d="M 580.1 128.654687 
L 641 128.654687 
Q 643 128.654687 643 126.654687 
L 643 50.2 
Q 643 48.2 641 48.2 
L 580.1 48.2 
Q 578.1 48.2 578.1 50.2 
L 578.1 126.654687 
Q 578.1 128.654687 580.1 128.654687 
z
" style="fill:#ffffff;opacity:0.8;stroke:#cccccc;stroke-linejoin:miter;"/>
    </g>
    <g id="line2d_59">
     <path d="M 582.1 56.69375 
L 602.1 56.69375 
" style="fill:none;stroke:#1f77b4;stroke-linecap:square;"/>
    </g>
    <g id="line2d_60"/>
    <g id="text_30">
     <!-- $B_{i,0}(t)$ -->
     <defs>
      <path d="M 18.3125 75.984375 
L 27.296875 75.984375 
L 25.09375 64.59375 
L 16.109375 64.59375 
z
M 14.203125 54.6875 
L 23.1875 54.6875 
L 12.5 0 
L 3.515625 0 
z
" id="DejaVuSans-Oblique-69"/>
      <path d="M 11.71875 12.40625 
L 22.015625 12.40625 
L 22.015625 4 
L 14.015625 -11.625 
L 7.71875 -11.625 
L 11.71875 4 
z
" id="DejaVuSans-2c"/>
     </defs>
     <g transform="translate(610.1 60.19375)scale(0.1 -0.1)">
      <use transform="translate(0 0.125)" xlink:href="#DejaVuSans-Oblique-42"/>
      <use transform="translate(68.603516 -16.28125)scale(0.7)" xlink:href="#DejaVuSans-Oblique-69"/>
      <use transform="translate(88.051758 -16.28125)scale(0.7)" xlink:href="#DejaVuSans-2c"/>
      <use transform="translate(123.94043 -16.28125)scale(0.7)" xlink:href="#DejaVuSans-30"/>
      <use transform="translate(171.210938 0.125)" xlink:href="#DejaVuSans-28"/>
      <use transform="translate(210.224609 0.125)" xlink:href="#DejaVuSans-Oblique-74"/>
      <use transform="translate(249.433594 0.125)" xlink:href="#DejaVuSans-29"/>
     </g>
    </g>
    <g id="line2d_61">
     <path d="M 582.1 72.1875 
L 602.1 72.1875 
" style="fill:none;stroke:#ff7f0e;stroke-linecap:square;stroke-width:1.5;"/>
    </g>
    <g id="line2d_62"/>
    <g id="text_31">
     <!-- $B_{i,1}(t)$ -->
     <g transform="translate(610.1 75.6875)scale(0.1 -0.1)">
      <use transform="translate(0 0.125)" xlink:href="#DejaVuSans-Oblique-42"/>
      <use transform="translate(68.603516 -16.28125)scale(0.7)" xlink:href="#DejaVuSans-Oblique-69"/>
      <use transform="translate(88.051758 -16.28125)scale(0.7)" xlink:href="#DejaVuSans-2c"/>
      <use transform="translate(123.94043 -16.28125)scale(0.7)" xlink:href="#DejaVuSans-31"/>
      <use transform="translate(171.210938 0.125)" xlink:href="#DejaVuSans-28"/>
      <use transform="translate(210.224609 0.125)" xlink:href="#DejaVuSans-Oblique-74"/>
      <use transform="translate(249.433594 0.125)" xlink:href="#DejaVuSans-29"/>
     </g>
    </g>
    <g id="line2d_63">
     <path d="M 582.1 87.68125 
L 602.1 87.68125 
" style="fill:none;stroke:#2ca02c;stroke-linecap:square;stroke-width:2;"/>
    </g>
    <g id="line2d_64"/>
    <g id="text_32">
     <!-- $B_{i,2}(t)$ -->
     <g transform="translate(610.1 91.18125)scale(0.1 -0.1)">
      <use transform="translate(0 0.125)" xlink:href="#DejaVuSans-Oblique-42"/>
      <use transform="translate(68.603516 -16.28125)scale(0.7)" xlink:href="#DejaVuSans-Oblique-69"/>
      <use transform="translate(88.051758 -16.28125)scale(0.7)" xlink:href="#DejaVuSans-2c"/>
      <use transform="translate(123.94043 -16.28125)scale(0.7)" xlink:href="#DejaVuSans-32"/>
      <use transform="translate(171.210938 0.125)" xlink:href="#DejaVuSans-28"/>
      <use transform="translate(210.224609 0.125)" xlink:href="#DejaVuSans-Oblique-74"/>
      <use transform="translate(249.433594 0.125)" xlink:href="#DejaVuSans-29"/>
     </g>
    </g>
    <g id="line2d_65">
     <path d="M 582.1 103.175 
L 602.1 103.175 
" style="fill:none;stroke:#d62728;stroke-linecap:square;stroke-width:2.5;"/>
    </g>
    <g id="line2d_66"/>
    <g id="text_33">
     <!-- $B_{i,3}(t)$ -->
     <g transform="translate(610.1 106.675)scale(0.1 -0.1)">
      <use transform="translate(0 0.125)" xlink:href="#DejaVuSans-Oblique-42"/>
      <use transform="translate(68.603516 -16.28125)scale(0.7)" xlink:href="#DejaVuSans-Oblique-69"/>
      <use transform="translate(88.051758 -16.28125)scale(0.7)" xlink:href="#DejaVuSans-2c"/>
      <use transform="translate(123.94043 -16.28125)scale(0.7)" xlink:href="#DejaVuSans-33"/>
      <use transform="translate(171.210938 0.125)" xlink:href="#DejaVuSans-28"/>
      <use transform="translate(210.224609 0.125)" xlink:href="#DejaVuSans-Oblique-74"/>
      <use transform="translate(249.433594 0.125)" xlink:href="#DejaVuSans-29"/>
     </g>
    </g>
    <g id="line2d_67"/>
    <g id="line2d_68">
     <g>
      <use style="fill:#008000;stroke:#008000;stroke-width:3;" x="592.1" xlink:href="#mb61019e327" y="118.66875"/>
     </g>
    </g>
    <g id="text_34">
     <!-- knots -->
     <defs>
      <path d="M 54.4375 0 
L 41.40625 0 
L 18.3125 26.03125 
L 18.109375 26.03125 
L 18.109375 0 
L 8.546875 0 
L 8.546875 79.9375 
L 18.109375 79.9375 
L 18.109375 29.25 
L 18.3125 29.25 
L 40.234375 54 
L 52.546875 54 
L 28.125 28.03125 
z
" id="MicrosoftYaHei-6b"/>
      <path d="M 54.203125 0 
L 44.671875 0 
L 44.671875 30.71875 
Q 44.671875 47.359375 32.515625 47.359375 
Q 26.21875 47.359375 22.15625 42.671875 
Q 18.109375 37.984375 18.109375 30.8125 
L 18.109375 0 
L 8.546875 0 
L 8.546875 54 
L 18.109375 54 
L 18.109375 45.0625 
L 18.3125 45.0625 
Q 24.421875 55.28125 36.03125 55.28125 
Q 44.921875 55.28125 49.5625 49.578125 
Q 54.203125 43.890625 54.203125 33.015625 
z
" id="MicrosoftYaHei-6e"/>
      <path d="M 4.9375 26.421875 
Q 4.9375 39.796875 12.40625 47.53125 
Q 19.875 55.28125 32.671875 55.28125 
Q 44.828125 55.28125 51.734375 47.828125 
Q 58.640625 40.375 58.640625 27.25 
Q 58.640625 14.453125 51.265625 6.59375 
Q 43.890625 -1.265625 31.5 -1.265625 
Q 19.390625 -1.265625 12.15625 6.34375 
Q 4.9375 13.96875 4.9375 26.421875 
z
M 14.703125 26.703125 
Q 14.703125 17.390625 19.40625 12.015625 
Q 24.125 6.640625 32.078125 6.640625 
Q 40.28125 6.640625 44.578125 11.890625 
Q 48.875 17.140625 48.875 26.953125 
Q 48.875 36.8125 44.578125 42.078125 
Q 40.28125 47.359375 32.078125 47.359375 
Q 24.03125 47.359375 19.359375 41.84375 
Q 14.703125 36.328125 14.703125 26.703125 
z
" id="MicrosoftYaHei-6f"/>
      <path d="M 5.515625 11.671875 
Q 12.75 6.453125 21.09375 6.453125 
Q 32.28125 6.453125 32.28125 13.765625 
Q 32.28125 16.890625 29.828125 18.921875 
Q 27.390625 20.953125 19.921875 23.734375 
Q 10.9375 27.34375 8.25 30.875 
Q 5.5625 34.421875 5.5625 39.453125 
Q 5.5625 46.625 11.640625 50.953125 
Q 17.71875 55.28125 26.609375 55.28125 
Q 33.5 55.28125 39.40625 52.875 
L 39.40625 43.65625 
Q 33.34375 47.5625 25.6875 47.5625 
Q 21.09375 47.5625 18.203125 45.5625 
Q 15.328125 43.5625 15.328125 40.28125 
Q 15.328125 37.0625 17.40625 35.25 
Q 19.484375 33.453125 26.609375 30.609375 
Q 35.640625 27.25 38.8125 23.625 
Q 42 20.015625 42 14.703125 
Q 42 7.28125 35.90625 3 
Q 29.828125 -1.265625 20.171875 -1.265625 
Q 11.765625 -1.265625 5.515625 1.90625 
z
" id="MicrosoftYaHei-73"/>
     </defs>
     <g transform="translate(610.1 122.16875)scale(0.1 -0.1)">
      <use xlink:href="#MicrosoftYaHei-6b"/>
      <use x="54.443359" xlink:href="#MicrosoftYaHei-6e"/>
      <use x="116.064453" xlink:href="#MicrosoftYaHei-6f"/>
      <use x="179.638672" xlink:href="#MicrosoftYaHei-74"/>
      <use x="216.894531" xlink:href="#MicrosoftYaHei-73"/>
     </g>
    </g>
   </g>
  </g>
 </g>
 <defs>
  <clipPath id="pbe0e426867">
   <rect height="277.2" width="558" x="90" y="43.2"/>
  </clipPath>
 </defs>
</svg>
